<?xml version="1.0" encoding="UTF-8" standalone="no"?>
<svg
   width="610.15625"
   height="50.996094"
   viewBox="0 0 610.15625 50.996094"
   version="1.1"
   id="svg98"
   xmlns="http://www.w3.org/2000/svg"
   xmlns:svg="http://www.w3.org/2000/svg">
  <defs
     id="defs2">
    <clipPath
       id="clip-0">
      <path
         clip-rule="nonzero"
         d="m 761,269 h 24.54687 v 26 H 761 Z m 0,0"
         id="path1" />
    </clipPath>
    <clipPath
       id="clip-1">
      <path
         clip-rule="nonzero"
         d="m 761,243 h 24.54687 v 27 H 761 Z m 0,0"
         id="path2" />
    </clipPath>
  </defs>
  <path
     fill-rule="nonzero"
     fill="#eea7b9"
     fill-opacity="1"
     d="m 127.48829,50.996092 h -25.4961 v -25.49609 h 25.4961 z m 0,0"
     id="path3" />
  <path
     fill-rule="nonzero"
     fill="#dc3c70"
     fill-opacity="1"
     d="m 127.48829,25.496092 h -25.4961 V 2e-6 h 25.4961 z m 0,0"
     id="path4" />
  <path
     fill-rule="nonzero"
     fill="#dc3c70"
     fill-opacity="1"
     d="m 127.48829,25.496092 h 25.49608 v 12.75 h -25.49608 z m 0,0"
     id="path5" />
  <path
     fill-rule="nonzero"
     fill="#e65071"
     fill-opacity="1"
     d="m 127.48829,38.246092 h 25.49608 v 12.75 h -25.49608 z m 0,0"
     id="path6" />
  <path
     fill-rule="nonzero"
     fill="#e65071"
     fill-opacity="1"
     d="m 114.73829,25.496092 h -12.7461 V 2e-6 h 12.7461 z m 0,0"
     id="path7" />
  <path
     fill-rule="nonzero"
     fill="#e65071"
     fill-opacity="1"
     d="m 152.98829,25.496092 h -25.5 V 2e-6 h 25.5 z m 0,0"
     id="path8" />
  <path
     fill-rule="nonzero"
     fill="#de9dc5"
     fill-opacity="1"
     d="m 127.48829,50.996092 h -25.4961 l 25.4961,-25.49609 z m 0,0"
     id="path9" />
  <path
     fill-rule="nonzero"
     fill="#de9dc5"
     fill-opacity="1"
     d="M 152.98437,25.496092 127.48829,2e-6 h 25.49608 z m 0,0"
     id="path10" />
  <path
     fill-rule="nonzero"
     fill="#a77cb6"
     fill-opacity="1"
     d="m 203.98046,50.996092 h -25.49609 v -25.49609 h 25.49609 z m 0,0"
     id="path11" />
  <path
     fill-rule="nonzero"
     fill="#6b60ab"
     fill-opacity="1"
     d="m 191.23046,50.996092 h -12.74609 v -25.49609 h 12.74609 z m 0,0"
     id="path12" />
  <path
     fill-rule="nonzero"
     fill="#58469b"
     fill-opacity="1"
     d="m 178.48437,2e-6 h 25.49609 v 12.75 h -25.49609 z m 0,0"
     id="path13" />
  <path
     fill-rule="nonzero"
     fill="#804f9f"
     fill-opacity="1"
     d="m 178.48437,12.750002 h 25.49609 v 12.74609 h -25.49609 z m 0,0"
     id="path14" />
  <path
     fill-rule="nonzero"
     fill="#6b60ab"
     fill-opacity="1"
     d="m 178.48437,50.996092 h -25.49608 v -25.5 z m 0,0"
     id="path15" />
  <path
     fill-rule="nonzero"
     fill="#58469b"
     fill-opacity="1"
     d="m 152.98437,25.496092 h 25.5 v 25.5 z m 0,0"
     id="path16" />
  <path
     fill-rule="nonzero"
     fill="#a77cb6"
     fill-opacity="1"
     d="m 178.48437,2e-6 v 25.49609 h -25.49608 z m 0,0"
     id="path17" />
  <path
     fill-rule="nonzero"
     fill="#804f9f"
     fill-opacity="1"
     d="m 178.48437,2e-6 h -25.49608 v 25.49609 z m 0,0"
     id="path18" />
  <path
     fill-rule="nonzero"
     fill="#f19e27"
     fill-opacity="1"
     d="M 25.496095,50.996092 H -5e-6 v -25.49609 h 25.4961 z m 0,0"
     id="path19" />
  <path
     fill-rule="nonzero"
     fill="#f19e27"
     fill-opacity="1"
     d="M 50.992185,25.496092 H 25.496095 V 2e-6 h 25.49609 z m 0,0"
     id="path20" />
  <path
     fill-rule="nonzero"
     fill="#f16223"
     fill-opacity="1"
     d="M 25.496095,25.496092 H -5e-6 V 2e-6 h 25.4961 z m 0,0"
     id="path21" />
  <path
     fill-rule="nonzero"
     fill="#f6811f"
     fill-opacity="1"
     d="M 25.496095,25.496092 H -5e-6 V 2e-6 Z m 0,0"
     id="path22" />
  <path
     fill-rule="nonzero"
     fill="#f6811f"
     fill-opacity="1"
     d="m 50.992185,2e-6 v 25.49609 h -25.49609 z m 0,0"
     id="path23" />
  <path
     fill-rule="nonzero"
     fill="#f16223"
     fill-opacity="1"
     d="m 50.992185,50.996092 h -25.49609 v -25.49609 h 25.49609 z m 0,0"
     id="path24" />
  <path
     fill-rule="nonzero"
     fill="#f6811f"
     fill-opacity="1"
     d="m 50.992185,50.996092 h -25.49609 v -12.75 h 25.49609 z m 0,0"
     id="path25" />
  <path
     fill-rule="nonzero"
     fill="#f16223"
     fill-opacity="1"
     d="m -5e-6,25.496092 h 12.94141 v 25.5 H -5e-6 Z m 0,0"
     id="path26" />
  <path
     fill-rule="nonzero"
     fill="#77bd44"
     fill-opacity="1"
     d="m 76.492185,25.500002 h -25.5 V 2e-6 h 25.5 z m 0,0"
     id="path27" />
  <path
     fill-rule="nonzero"
     fill="#77bd44"
     fill-opacity="1"
     d="M 101.99219,25.500002 H 76.492185 V 2e-6 h 25.500005 z m 0,0"
     id="path28" />
  <path
     fill-rule="nonzero"
     fill="#ccdb28"
     fill-opacity="1"
     d="m 50.996095,25.500002 h 25.49609 v 25.49609 h -25.49609 z m 0,0"
     id="path29" />
  <path
     fill-rule="nonzero"
     fill="#ccdb28"
     fill-opacity="1"
     d="m 76.492185,25.496092 h 25.496105 v 25.5 H 76.492185 Z m 0,0"
     id="path30" />
  <path
     fill-rule="nonzero"
     fill="#55b648"
     fill-opacity="1"
     d="m 50.992185,25.500002 h 25.5 v 25.49609 z m 0,0"
     id="path31" />
  <path
     fill-rule="nonzero"
     fill="#55b648"
     fill-opacity="1"
     d="M 101.99219,2e-6 H 76.492185 v 25.49609 z m 0,0"
     id="path32" />
  <path
     fill-rule="nonzero"
     fill="#55b648"
     fill-opacity="1"
     d="m 89.242185,25.496092 h 12.746105 v 25.5 H 89.242185 Z m 0,0"
     id="path33" />
  <path
     fill-rule="nonzero"
     fill="#ccdb28"
     fill-opacity="1"
     d="M 76.492185,12.730472 H 50.996095 V 2e-6 h 25.49609 z m 0,0"
     id="path34" />
  <path
     fill-rule="nonzero"
     fill="#eea7b9"
     fill-opacity="1"
     d="m 356.96875,50.996092 h -25.49609 v -25.49609 h 25.49609 z m 0,0"
     id="path35" />
  <path
     fill-rule="nonzero"
     fill="#dc3c70"
     fill-opacity="1"
     d="m 331.47265,50.996092 h -25.5 v -25.49609 h 25.5 z m 0,0"
     id="path36" />
  <path
     fill-rule="nonzero"
     fill="#dc3c70"
     fill-opacity="1"
     d="m 344.21875,25.496092 h -12.75 V 2e-6 h 12.75 z m 0,0"
     id="path37" />
  <path
     fill-rule="nonzero"
     fill="#e65071"
     fill-opacity="1"
     d="m 356.96875,25.496092 h -12.75 V 2e-6 h 12.75 z m 0,0"
     id="path38" />
  <path
     fill-rule="nonzero"
     fill="#e65071"
     fill-opacity="1"
     d="m 331.47265,50.996092 h -25.5 v -12.75 h 25.5 z m 0,0"
     id="path39" />
  <path
     fill-rule="nonzero"
     fill="#e65071"
     fill-opacity="1"
     d="m 331.47265,25.496092 h -25.5 V 2e-6 h 25.5 z m 0,0"
     id="path40" />
  <path
     fill-rule="nonzero"
     fill="#de9dc5"
     fill-opacity="1"
     d="m 356.96875,25.496092 v 25.5 l -25.49609,-25.5 z m 0,0"
     id="path41" />
  <path
     fill-rule="nonzero"
     fill="#de9dc5"
     fill-opacity="1"
     d="m 331.47265,2e-6 -25.5,25.49609 V 2e-6 Z m 0,0"
     id="path42" />
  <path
     fill-rule="nonzero"
     fill="#a77cb6"
     fill-opacity="1"
     d="m 356.96875,2e-6 h 25.49609 v 25.49609 h -25.49609 z m 0,0"
     id="path43" />
  <path
     fill-rule="nonzero"
     fill="#6b60ab"
     fill-opacity="1"
     d="m 369.71875,2e-6 h 12.74609 v 25.49609 h -12.74609 z m 0,0"
     id="path44" />
  <path
     fill-rule="nonzero"
     fill="#58469b"
     fill-opacity="1"
     d="m 382.46484,50.996092 h -25.49609 v -12.75 h 25.49609 z m 0,0"
     id="path45" />
  <path
     fill-rule="nonzero"
     fill="#804f9f"
     fill-opacity="1"
     d="m 382.46484,38.246092 h -25.49609 v -12.75 h 25.49609 z m 0,0"
     id="path46" />
  <path
     fill-rule="nonzero"
     fill="#6b60ab"
     fill-opacity="1"
     d="m 382.46484,2e-6 h 25.5 v 25.49609 z m 0,0"
     id="path47" />
  <path
     fill-rule="nonzero"
     fill="#58469b"
     fill-opacity="1"
     d="m 407.96484,25.496092 h -25.5 V 2e-6 Z m 0,0"
     id="path48" />
  <path
     fill-rule="nonzero"
     fill="#a77cb6"
     fill-opacity="1"
     d="m 382.46484,50.996092 v -25.49609 h 25.5 z m 0,0"
     id="path49" />
  <path
     fill-rule="nonzero"
     fill="#804f9f"
     fill-opacity="1"
     d="m 382.46484,50.996092 h 25.5 v -25.49609 z m 0,0"
     id="path50" />
  <path
     fill-rule="nonzero"
     fill="#f19e27"
     fill-opacity="1"
     d="m 229.47656,2e-6 h 25.5 v 25.49609 h -25.5 z m 0,0"
     id="path51" />
  <path
     fill-rule="nonzero"
     fill="#f19e27"
     fill-opacity="1"
     d="m 203.98046,25.496092 h 25.4961 v 25.5 h -25.4961 z m 0,0"
     id="path52" />
  <path
     fill-rule="nonzero"
     fill="#f16223"
     fill-opacity="1"
     d="m 229.47656,25.496092 h 25.5 v 25.5 h -25.5 z m 0,0"
     id="path53" />
  <path
     fill-rule="nonzero"
     fill="#f6811f"
     fill-opacity="1"
     d="m 229.48046,25.496092 h 25.4961 v 25.5 z m 0,0"
     id="path54" />
  <path
     fill-rule="nonzero"
     fill="#f6811f"
     fill-opacity="1"
     d="m 203.98046,50.996092 v -25.5 h 25.4961 z m 0,0"
     id="path55" />
  <path
     fill-rule="nonzero"
     fill="#f16223"
     fill-opacity="1"
     d="m 203.98046,2e-6 h 25.4961 v 25.49609 h -25.4961 z m 0,0"
     id="path56" />
  <path
     fill-rule="nonzero"
     fill="#f6811f"
     fill-opacity="1"
     d="m 203.98046,2e-6 h 25.4961 v 12.75 h -25.4961 z m 0,0"
     id="path57" />
  <path
     fill-rule="nonzero"
     fill="#f16223"
     fill-opacity="1"
     d="M 254.97656,25.496092 H 242.03515 V 2e-6 h 12.94141 z m 0,0"
     id="path58" />
  <path
     fill-rule="nonzero"
     fill="#77bd44"
     fill-opacity="1"
     d="m 280.47656,25.496092 h 25.49609 v 25.5 h -25.49609 z m 0,0"
     id="path59" />
  <path
     fill-rule="nonzero"
     fill="#77bd44"
     fill-opacity="1"
     d="m 254.97656,25.496092 h 25.49609 v 25.5 h -25.49609 z m 0,0"
     id="path60" />
  <path
     fill-rule="nonzero"
     fill="#ccdb28"
     fill-opacity="1"
     d="M 305.97265,25.496092 H 280.47656 V 2e-6 h 25.49609 z m 0,0"
     id="path61" />
  <path
     fill-rule="nonzero"
     fill="#ccdb28"
     fill-opacity="1"
     d="M 280.47265,25.500002 H 254.97656 V 2e-6 h 25.49609 z m 0,0"
     id="path62" />
  <path
     fill-rule="nonzero"
     fill="#55b648"
     fill-opacity="1"
     d="M 305.97265,25.496092 H 280.47656 V 2e-6 Z m 0,0"
     id="path63" />
  <path
     fill-rule="nonzero"
     fill="#55b648"
     fill-opacity="1"
     d="m 254.97656,50.996092 h 25.49609 v -25.5 z m 0,0"
     id="path64" />
  <path
     fill-rule="nonzero"
     fill="#55b648"
     fill-opacity="1"
     d="m 267.72656,25.500002 h -12.75 V 2e-6 h 12.75 z m 0,0"
     id="path65" />
  <path
     fill-rule="nonzero"
     fill="#ccdb28"
     fill-opacity="1"
     d="m 280.47656,38.265622 h 25.49609 v 12.73047 h -25.49609 z m 0,0"
     id="path66" />
  <path
     fill-rule="nonzero"
     fill="#eea7b9"
     fill-opacity="1"
     d="m 535.45312,50.996092 h 25.49609 v -25.49609 h -25.49609 z m 0,0"
     id="path67" />
  <path
     fill-rule="nonzero"
     fill="#dc3c70"
     fill-opacity="1"
     d="m 535.45312,25.496092 h 25.49609 V 2e-6 h -25.49609 z m 0,0"
     id="path68" />
  <path
     fill-rule="nonzero"
     fill="#dc3c70"
     fill-opacity="1"
     d="m 535.45312,25.496092 h -25.49608 v 12.75 h 25.49608 z m 0,0"
     id="path69" />
  <path
     fill-rule="nonzero"
     fill="#e65071"
     fill-opacity="1"
     d="m 535.45312,38.246092 h -25.49608 v 12.75 h 25.49608 z m 0,0"
     id="path70" />
  <path
     fill-rule="nonzero"
     fill="#e65071"
     fill-opacity="1"
     d="m 548.20312,25.496092 h 12.75 V 2e-6 h -12.75 z m 0,0"
     id="path71" />
  <path
     fill-rule="nonzero"
     fill="#e65071"
     fill-opacity="1"
     d="m 509.95704,25.496092 h 25.49608 V 2e-6 h -25.49608 z m 0,0"
     id="path72" />
  <path
     fill-rule="nonzero"
     fill="#de9dc5"
     fill-opacity="1"
     d="m 535.45312,50.996092 h 25.49609 l -25.49609,-25.49609 z m 0,0"
     id="path73" />
  <path
     fill-rule="nonzero"
     fill="#de9dc5"
     fill-opacity="1"
     d="M 509.95704,25.496092 535.45312,2e-6 h -25.49608 z m 0,0"
     id="path74" />
  <path
     fill-rule="nonzero"
     fill="#a77cb6"
     fill-opacity="1"
     d="m 560.95312,50.996092 h 25.49609 v -25.49609 h -25.49609 z m 0,0"
     id="path75" />
  <path
     fill-rule="nonzero"
     fill="#6b60ab"
     fill-opacity="1"
     d="m 573.69921,50.996092 h 12.75 v -25.49609 h -12.75 z m 0,0"
     id="path76" />
  <path
     fill-rule="nonzero"
     fill="#58469b"
     fill-opacity="1"
     d="m 586.44921,2e-6 h -25.49609 v 12.75 h 25.49609 z m 0,0"
     id="path77" />
  <path
     fill-rule="nonzero"
     fill="#804f9f"
     fill-opacity="1"
     d="m 586.44921,12.750002 h -25.49609 v 12.74609 h 25.49609 z m 0,0"
     id="path78" />
  <g
     clip-path="url(#clip-0)"
     id="g80"
     transform="translate(-175.39062,-243.80469)">
    <path
       fill-rule="nonzero"
       fill="#6b60ab"
       fill-opacity="1"
       d="m 761.83984,294.80078 h 25.4961 v -25.5 z m 0,0"
       id="path79" />
    <path
       fill-rule="nonzero"
       fill="#58469b"
       fill-opacity="1"
       d="m 787.33594,269.30078 h -25.4961 v 25.5 z m 0,0"
       id="path80" />
  </g>
  <g
     clip-path="url(#clip-1)"
     id="g82"
     transform="translate(-175.39062,-243.80469)">
    <path
       fill-rule="nonzero"
       fill="#a77cb6"
       fill-opacity="1"
       d="m 761.83984,243.80469 v 25.49609 h 25.4961 z m 0,0"
       id="path81" />
    <path
       fill-rule="nonzero"
       fill="#804f9f"
       fill-opacity="1"
       d="m 761.83984,243.80469 h 25.4961 v 25.49609 z m 0,0"
       id="path82" />
  </g>
  <path
     fill-rule="nonzero"
     fill="#f19e27"
     fill-opacity="1"
     d="m 433.46093,50.996092 h 25.4961 v -25.49609 h -25.4961 z m 0,0"
     id="path83" />
  <path
     fill-rule="nonzero"
     fill="#f19e27"
     fill-opacity="1"
     d="m 407.96484,25.496092 h 25.49609 V 2e-6 h -25.49609 z m 0,0"
     id="path84" />
  <path
     fill-rule="nonzero"
     fill="#f16223"
     fill-opacity="1"
     d="m 433.46093,25.496092 h 25.4961 V 2e-6 h -25.4961 z m 0,0"
     id="path85" />
  <path
     fill-rule="nonzero"
     fill="#f6811f"
     fill-opacity="1"
     d="m 433.46093,25.496092 h 25.4961 V 2e-6 Z m 0,0"
     id="path86" />
  <path
     fill-rule="nonzero"
     fill="#f6811f"
     fill-opacity="1"
     d="m 407.96484,2e-6 v 25.49609 h 25.49609 z m 0,0"
     id="path87" />
  <path
     fill-rule="nonzero"
     fill="#f16223"
     fill-opacity="1"
     d="m 407.96484,50.996092 h 25.49609 v -25.49609 h -25.49609 z m 0,0"
     id="path88" />
  <path
     fill-rule="nonzero"
     fill="#f6811f"
     fill-opacity="1"
     d="m 407.96484,50.996092 h 25.49609 v -12.75 h -25.49609 z m 0,0"
     id="path89" />
  <path
     fill-rule="nonzero"
     fill="#f16223"
     fill-opacity="1"
     d="m 458.95704,25.496092 h -12.94142 v 25.5 h 12.94142 z m 0,0"
     id="path90" />
  <path
     fill-rule="nonzero"
     fill="#77bd44"
     fill-opacity="1"
     d="m 484.45704,25.500002 h 25.5 V 2e-6 h -25.5 z m 0,0"
     id="path91" />
  <path
     fill-rule="nonzero"
     fill="#77bd44"
     fill-opacity="1"
     d="m 458.95704,25.500002 h 25.5 V 2e-6 h -25.5 z m 0,0"
     id="path92" />
  <path
     fill-rule="nonzero"
     fill="#ccdb28"
     fill-opacity="1"
     d="m 509.95704,25.500002 h -25.5 v 25.49609 h 25.5 z m 0,0"
     id="path93" />
  <path
     fill-rule="nonzero"
     fill="#ccdb28"
     fill-opacity="1"
     d="m 484.45704,25.496092 h -25.4961 v 25.5 h 25.4961 z m 0,0"
     id="path94" />
  <path
     fill-rule="nonzero"
     fill="#55b648"
     fill-opacity="1"
     d="m 509.95704,25.500002 h -25.5 v 25.49609 z m 0,0"
     id="path95" />
  <path
     fill-rule="nonzero"
     fill="#55b648"
     fill-opacity="1"
     d="m 458.95704,2e-6 h 25.5 v 25.49609 z m 0,0"
     id="path96" />
  <path
     fill-rule="nonzero"
     fill="#55b648"
     fill-opacity="1"
     d="m 471.70704,25.496092 h -12.7461 v 25.5 h 12.7461 z m 0,0"
     id="path97" />
  <path
     fill-rule="nonzero"
     fill="#ccdb28"
     fill-opacity="1"
     d="m 484.45704,12.730472 h 25.5 V 2e-6 h -25.5 z m 0,0"
     id="path98" />
</svg>
