<?xml version="1.0" encoding="UTF-8" standalone="no"?>
<svg
   width="134.80859"
   height="135.01172"
   viewBox="0 0 134.80859 135.01172"
   version="1.1"
   id="svg43"
   xmlns="http://www.w3.org/2000/svg"
   xmlns:svg="http://www.w3.org/2000/svg">
  <defs
     id="defs5">
    <clipPath
       id="clip-0">
      <path
         clip-rule="nonzero"
         d="m 531,220 h 17.54687 v 52 H 531 Z m 0,0"
         id="path1" />
    </clipPath>
    <clipPath
       id="clip-1">
      <path
         clip-rule="nonzero"
         d="m 531,271 h 17.54687 v 17 H 531 Z m 0,0"
         id="path2" />
    </clipPath>
    <clipPath
       id="clip-2">
      <path
         clip-rule="nonzero"
         d="m 531,203 h 17.54687 v 18 H 531 Z m 0,0"
         id="path3" />
    </clipPath>
    <clipPath
       id="clip-3">
      <path
         clip-rule="nonzero"
         d="m 531,321 h 17.54687 v 18 H 531 Z m 0,0"
         id="path4" />
    </clipPath>
    <clipPath
       id="clip-4">
      <path
         clip-rule="nonzero"
         d="m 531,287 h 17.54687 v 35 H 531 Z m 0,0"
         id="path5" />
    </clipPath>
  </defs>
  <path
     fill-rule="nonzero"
     fill="#f16223"
     fill-opacity="1"
     d="m 33.769529,16.874995 h -33.75 V -5e-6 h 33.75 z m 0,0"
     id="path6" />
  <path
     fill-rule="nonzero"
     fill="#f19e27"
     fill-opacity="1"
     d="m 33.769529,33.749995 h -33.75 v -16.875 h 33.75 z m 0,0"
     id="path7" />
  <path
     fill-rule="nonzero"
     fill="#eea7b9"
     fill-opacity="1"
     d="M 101.26953,33.757815 H 84.394529 v -16.875 h 16.875001 z m 0,0"
     id="path8" />
  <path
     fill-rule="nonzero"
     fill="#f6811f"
     fill-opacity="1"
     d="M 101.26953,50.632815 H 84.394529 v -16.875 h 16.875001 z m 0,0"
     id="path9" />
  <path
     fill-rule="nonzero"
     fill="#804f9f"
     fill-opacity="1"
     d="m 50.644529,-5e-6 h 16.875 v 33.75 h -16.875 z m 0,0"
     id="path10" />
  <path
     fill-rule="nonzero"
     fill="#de9dc5"
     fill-opacity="1"
     d="m 50.644529,33.757815 h 16.875 v 33.75 h -16.875 z m 0,0"
     id="path11" />
  <path
     fill-rule="nonzero"
     fill="#58469b"
     fill-opacity="1"
     d="m 67.519529,-5e-6 h 33.750001 v 16.875 H 67.519529 Z m 0,0"
     id="path12" />
  <path
     fill-rule="nonzero"
     fill="#ccdb28"
     fill-opacity="1"
     d="m 84.394529,50.632815 h -16.875 v -33.75 h 16.875 z m 0,0"
     id="path13" />
  <path
     fill-rule="nonzero"
     fill="#55b648"
     fill-opacity="1"
     d="m 33.769529,50.632815 h -33.75 v -16.875 h 33.75 z m 0,0"
     id="path14" />
  <path
     fill-rule="nonzero"
     fill="#6b60ab"
     fill-opacity="1"
     d="m 50.644529,67.507815 h -50.625 v -16.875 h 50.625 z m 0,0"
     id="path15" />
  <path
     fill-rule="nonzero"
     fill="#ccdb28"
     fill-opacity="1"
     d="m 33.777339,0.007815 h 16.875 v 50.625 h -16.875 z m 0,0"
     id="path16" />
  <path
     fill-rule="nonzero"
     fill="#dc3c70"
     fill-opacity="1"
     d="m 16.894529,33.757815 h 16.875 v 33.75 h -16.875 z m 0,0"
     id="path17" />
  <path
     fill-rule="nonzero"
     fill="#e65071"
     fill-opacity="1"
     d="M 101.26953,67.507815 H 67.519529 v -16.875 h 33.750001 z m 0,0"
     id="path18" />
  <path
     fill-rule="nonzero"
     fill="#eea7b9"
     fill-opacity="1"
     d="M 101.26953,101.26171 H 84.394529 V 84.386715 h 16.875001 z m 0,0"
     id="path19" />
  <path
     fill-rule="nonzero"
     fill="#f6811f"
     fill-opacity="1"
     d="M 101.26953,118.13671 H 84.394529 v -16.875 h 16.875001 z m 0,0"
     id="path20" />
  <path
     fill-rule="nonzero"
     fill="#77bd44"
     fill-opacity="1"
     d="m 101.26953,33.757815 h 16.875 v 16.875 h -16.875 z m 0,0"
     id="path21" />
  <path
     fill-rule="nonzero"
     fill="#77bd44"
     fill-opacity="1"
     d="m 67.519529,118.13671 h 33.750001 v 16.875 H 67.519529 Z m 0,0"
     id="path22" />
  <path
     fill-rule="nonzero"
     fill="#6b60ab"
     fill-opacity="1"
     d="m 101.26953,101.26171 h 16.875 v 33.75 h -16.875 z m 0,0"
     id="path23" />
  <g
     clip-path="url(#clip-0)"
     id="g24"
     transform="translate(-413.73828,-203.60937)">
    <path
       fill-rule="nonzero"
       fill="#eea7b9"
       fill-opacity="1"
       d="m 531.88281,220.49219 h 16.875 v 50.62109 h -16.875 z m 0,0"
       id="path24" />
  </g>
  <g
     clip-path="url(#clip-1)"
     id="g25"
     transform="translate(-413.73828,-203.60937)">
    <path
       fill-rule="nonzero"
       fill="#804f9f"
       fill-opacity="1"
       d="m 531.88281,271.125 h 16.875 V 288 h -16.875 z m 0,0"
       id="path25" />
  </g>
  <g
     clip-path="url(#clip-2)"
     id="g26"
     transform="translate(-413.73828,-203.60937)">
    <path
       fill-rule="nonzero"
       fill="#f19e27"
       fill-opacity="1"
       d="m 531.88281,203.60937 h 16.875 v 16.875 h -16.875 z m 0,0"
       id="path26" />
  </g>
  <g
     clip-path="url(#clip-3)"
     id="g27"
     transform="translate(-413.73828,-203.60937)">
    <path
       fill-rule="nonzero"
       fill="#6b60ab"
       fill-opacity="1"
       d="m 531.88281,321.74609 h 16.875 v 16.875 h -16.875 z m 0,0"
       id="path27" />
  </g>
  <g
     clip-path="url(#clip-4)"
     id="g28"
     transform="translate(-413.73828,-203.60937)">
    <path
       fill-rule="nonzero"
       fill="#ccdb28"
       fill-opacity="1"
       d="m 531.88281,287.99609 h 16.875 v 33.75 h -16.875 z m 0,0"
       id="path28" />
  </g>
  <path
     fill-rule="nonzero"
     fill="#58469b"
     fill-opacity="1"
     d="m 67.519529,67.503905 h 33.750001 v 16.875 H 67.519529 Z m 0,0"
     id="path29" />
  <path
     fill-rule="nonzero"
     fill="#6b60ab"
     fill-opacity="1"
     d="m 84.394529,118.13671 h -16.875 V 84.386715 h 16.875 z m 0,0"
     id="path30" />
  <path
     fill-rule="nonzero"
     fill="#55b648"
     fill-opacity="1"
     d="m 33.769529,118.13671 h -33.75 v -16.875 h 33.75 z m 0,0"
     id="path31" />
  <path
     fill-rule="nonzero"
     fill="#eea7b9"
     fill-opacity="1"
     d="m 33.769529,135.01171 h -33.75 v -16.875 h 33.75 z m 0,0"
     id="path32" />
  <path
     fill-rule="nonzero"
     fill="#ccdb28"
     fill-opacity="1"
     d="m 84.394529,84.378905 h -50.625 v -16.875 h 50.625 z m 0,0"
     id="path33" />
  <path
     fill-rule="nonzero"
     fill="#f6811f"
     fill-opacity="1"
     d="M 50.624999,101.26171 H -10e-7 V 84.386715 h 50.625 z m 0,0"
     id="path34" />
  <path
     fill-rule="nonzero"
     fill="#77bd44"
     fill-opacity="1"
     d="m 50.644529,84.386715 h 16.875 v 16.874995 h -16.875 z m 0,0"
     id="path35" />
  <path
     fill-rule="nonzero"
     fill="#77bd44"
     fill-opacity="1"
     d="m 101.26953,84.386715 h 16.875 v 16.874995 h -16.875 z m 0,0"
     id="path36" />
  <path
     fill-rule="nonzero"
     fill="#dc3c70"
     fill-opacity="1"
     d="m 16.894529,101.26171 h 16.875 v 33.75 h -16.875 z m 0,0"
     id="path37" />
  <path
     fill-rule="nonzero"
     fill="#804f9f"
     fill-opacity="1"
     d="m 33.777339,118.13671 h 33.75 v 16.875 h -33.75 z m 0,0"
     id="path38" />
  <path
     fill-rule="nonzero"
     fill="#eea7b9"
     fill-opacity="1"
     d="m 33.777339,101.26171 h 16.875 v 16.875 h -16.875 z m 0,0"
     id="path39" />
  <path
     fill-rule="nonzero"
     fill="#ccdb28"
     fill-opacity="1"
     d="m 50.644529,101.26171 h 16.875 v 16.875 h -16.875 z m 0,0"
     id="path40" />
  <path
     fill-rule="nonzero"
     fill="#f19e27"
     fill-opacity="1"
     d="m 101.26953,50.632815 h 16.875 v 33.75 h -16.875 z m 0,0"
     id="path41" />
  <path
     fill-rule="nonzero"
     fill="#eea7b9"
     fill-opacity="1"
     d="m 33.769529,84.378905 h -33.75 v -16.875 h 33.75 z m 0,0"
     id="path42" />
  <path
     fill-rule="nonzero"
     fill="#e65071"
     fill-opacity="1"
     d="m 101.26953,-5e-6 h 16.875 v 33.75 h -16.875 z m 0,0"
     id="path43" />
</svg>
