<?xml version="1.0" encoding="UTF-8" standalone="no"?>
<svg
   width="134.15625"
   height="135.01562"
   viewBox="0 0 134.15625 135.01562"
   version="1.1"
   id="svg40"
   xmlns="http://www.w3.org/2000/svg"
   xmlns:svg="http://www.w3.org/2000/svg">
  <defs
     id="defs8">
    <clipPath
       id="clip-0">
      <path
         clip-rule="nonzero"
         d="m 514,304 h 33.54687 v 18 H 514 Z m 0,0"
         id="path1" />
    </clipPath>
    <clipPath
       id="clip-1">
      <path
         clip-rule="nonzero"
         d="m 514,321 h 33.54687 v 18 H 514 Z m 0,0"
         id="path2" />
    </clipPath>
    <clipPath
       id="clip-2">
      <path
         clip-rule="nonzero"
         d="m 514,271 h 33.54687 v 34 H 514 Z m 0,0"
         id="path3" />
    </clipPath>
    <clipPath
       id="clip-3">
      <path
         clip-rule="nonzero"
         d="m 514,271 h 33.54687 v 34 H 514 Z m 0,0"
         id="path4" />
    </clipPath>
    <clipPath
       id="clip-4">
      <path
         clip-rule="nonzero"
         d="m 514,203 h 33.54687 v 35 H 514 Z m 0,0"
         id="path5" />
    </clipPath>
    <clipPath
       id="clip-5">
      <path
         clip-rule="nonzero"
         d="m 514,237 h 33.54687 v 35 H 514 Z m 0,0"
         id="path6" />
    </clipPath>
    <clipPath
       id="clip-6">
      <path
         clip-rule="nonzero"
         d="m 514,203 h 33.54687 v 35 H 514 Z m 0,0"
         id="path7" />
    </clipPath>
    <clipPath
       id="clip-7">
      <path
         clip-rule="nonzero"
         d="m 531,237 h 16.54687 v 35 H 531 Z m 0,0"
         id="path8" />
    </clipPath>
  </defs>
  <path
     fill-rule="nonzero"
     fill="#eea7b9"
     fill-opacity="1"
     d="M 101.26171,135.01562 H 67.507815 v -33.7539 h 33.753895 z m 0,0"
     id="path9" />
  <path
     fill-rule="nonzero"
     fill="#dc3c70"
     fill-opacity="1"
     d="M 101.26171,101.26172 H 67.507815 V 67.507811 h 33.753895 z m 0,0"
     id="path10" />
  <g
     clip-path="url(#clip-0)"
     id="g11"
     transform="translate(-413.39062,-203.60547)">
    <path
       fill-rule="nonzero"
       fill="#dc3c70"
       fill-opacity="1"
       d="m 514.65234,304.86719 h 33.75391 v 16.8789 h -33.75391 z m 0,0"
       id="path11" />
  </g>
  <g
     clip-path="url(#clip-1)"
     id="g12"
     transform="translate(-413.39062,-203.60547)">
    <path
       fill-rule="nonzero"
       fill="#e65071"
       fill-opacity="1"
       d="m 514.65234,321.74609 h 33.75391 v 16.875 h -33.75391 z m 0,0"
       id="path12" />
  </g>
  <path
     fill-rule="nonzero"
     fill="#e65071"
     fill-opacity="1"
     d="m 84.386715,101.26172 h -16.8789 V 67.507811 h 16.8789 z m 0,0"
     id="path13" />
  <g
     clip-path="url(#clip-2)"
     id="g14"
     transform="translate(-413.39062,-203.60547)">
    <path
       fill-rule="nonzero"
       fill="#e65071"
       fill-opacity="1"
       d="m 548.40625,304.86719 h -33.75391 v -33.75391 h 33.75391 z m 0,0"
       id="path14" />
  </g>
  <path
     fill-rule="nonzero"
     fill="#de9dc5"
     fill-opacity="1"
     d="M 101.26171,135.01562 H 67.507815 l 33.753895,-33.7539 z m 0,0"
     id="path15" />
  <g
     clip-path="url(#clip-3)"
     id="g16"
     transform="translate(-413.39062,-203.60547)">
    <path
       fill-rule="nonzero"
       fill="#de9dc5"
       fill-opacity="1"
       d="m 548.40625,304.86719 -33.75391,-33.75391 h 33.75391 z m 0,0"
       id="path16" />
  </g>
  <path
     fill-rule="nonzero"
     fill="#a77cb6"
     fill-opacity="1"
     d="m 67.507815,135.01562 h -33.75391 v -33.7539 h 33.75391 z m 0,0"
     id="path17" />
  <path
     fill-rule="nonzero"
     fill="#6b60ab"
     fill-opacity="1"
     d="m 50.628905,135.01562 h -16.875 v -33.7539 h 16.875 z m 0,0"
     id="path18" />
  <path
     fill-rule="nonzero"
     fill="#58469b"
     fill-opacity="1"
     d="m 33.753905,67.507811 h 33.75391 v 16.87891 h -33.75391 z m 0,0"
     id="path19" />
  <path
     fill-rule="nonzero"
     fill="#804f9f"
     fill-opacity="1"
     d="m 33.753905,84.386721 h 33.75391 v 16.874999 h -33.75391 z m 0,0"
     id="path20" />
  <path
     fill-rule="nonzero"
     fill="#6b60ab"
     fill-opacity="1"
     d="M 33.753905,135.01562 H -5e-6 v -33.7539 z m 0,0"
     id="path21" />
  <path
     fill-rule="nonzero"
     fill="#58469b"
     fill-opacity="1"
     d="m -5e-6,101.26172 h 33.75391 v 33.7539 z m 0,0"
     id="path22" />
  <path
     fill-rule="nonzero"
     fill="#a77cb6"
     fill-opacity="1"
     d="M 33.753905,67.507811 V 101.26172 H -5e-6 Z m 0,0"
     id="path23" />
  <path
     fill-rule="nonzero"
     fill="#804f9f"
     fill-opacity="1"
     d="M 33.753905,67.507811 H -5e-6 v 33.753909 z m 0,0"
     id="path24" />
  <path
     fill-rule="nonzero"
     fill="#f19e27"
     fill-opacity="1"
     d="M 33.753905,67.507811 H -5e-6 v -33.75391 h 33.75391 z m 0,0"
     id="path25" />
  <path
     fill-rule="nonzero"
     fill="#f19e27"
     fill-opacity="1"
     d="M 67.507815,33.753901 H 33.753905 V 1e-6 h 33.75391 z m 0,0"
     id="path26" />
  <path
     fill-rule="nonzero"
     fill="#f16223"
     fill-opacity="1"
     d="M 33.753905,33.753901 H -5e-6 V 1e-6 h 33.75391 z m 0,0"
     id="path27" />
  <path
     fill-rule="nonzero"
     fill="#f6811f"
     fill-opacity="1"
     d="M 33.753905,33.753901 H -5e-6 V 1e-6 Z m 0,0"
     id="path28" />
  <path
     fill-rule="nonzero"
     fill="#f6811f"
     fill-opacity="1"
     d="m 67.507815,1e-6 v 33.7539 h -33.75391 z m 0,0"
     id="path29" />
  <path
     fill-rule="nonzero"
     fill="#f16223"
     fill-opacity="1"
     d="m 67.507815,67.507811 h -33.75391 v -33.75391 h 33.75391 z m 0,0"
     id="path30" />
  <path
     fill-rule="nonzero"
     fill="#f6811f"
     fill-opacity="1"
     d="m 67.507815,67.507811 h -33.75391 v -16.875 h 33.75391 z m 0,0"
     id="path31" />
  <path
     fill-rule="nonzero"
     fill="#f16223"
     fill-opacity="1"
     d="m -5e-6,33.753901 h 17.13282 v 33.75391 H -5e-6 Z m 0,0"
     id="path32" />
  <path
     fill-rule="nonzero"
     fill="#77bd44"
     fill-opacity="1"
     d="M 101.26171,33.753901 H 67.507815 V 1e-6 h 33.753895 z m 0,0"
     id="path33" />
  <g
     clip-path="url(#clip-4)"
     id="g34"
     transform="translate(-413.39062,-203.60547)">
    <path
       fill-rule="nonzero"
       fill="#77bd44"
       fill-opacity="1"
       d="m 548.41016,237.35937 h -33.75782 v -33.7539 h 33.75782 z m 0,0"
       id="path34" />
  </g>
  <path
     fill-rule="nonzero"
     fill="#ccdb28"
     fill-opacity="1"
     d="m 67.507815,33.753901 h 33.753895 v 33.75391 H 67.507815 Z m 0,0"
     id="path35" />
  <g
     clip-path="url(#clip-5)"
     id="g36"
     transform="translate(-413.39062,-203.60547)">
    <path
       fill-rule="nonzero"
       fill="#ccdb28"
       fill-opacity="1"
       d="m 514.65234,237.35937 h 33.75391 v 33.75391 h -33.75391 z m 0,0"
       id="path36" />
  </g>
  <path
     fill-rule="nonzero"
     fill="#55b648"
     fill-opacity="1"
     d="m 67.507815,33.753901 h 33.753895 v 33.75391 z m 0,0"
     id="path37" />
  <g
     clip-path="url(#clip-6)"
     id="g38"
     transform="translate(-413.39062,-203.60547)">
    <path
       fill-rule="nonzero"
       fill="#55b648"
       fill-opacity="1"
       d="m 548.41016,203.60547 h -33.75391 v 33.7539 z m 0,0"
       id="path38" />
  </g>
  <g
     clip-path="url(#clip-7)"
     id="g39"
     transform="translate(-413.39062,-203.60547)">
    <path
       fill-rule="nonzero"
       fill="#55b648"
       fill-opacity="1"
       d="m 531.53125,237.35937 h 16.875 v 33.75391 h -16.875 z m 0,0"
       id="path39" />
  </g>
  <path
     fill-rule="nonzero"
     fill="#ccdb28"
     fill-opacity="1"
     d="M 101.26171,16.851561 H 67.507815 V 10e-7 h 33.753895 z m 0,0"
     id="path40" />
</svg>
