<?xml version="1.0" encoding="UTF-8" standalone="no"?>
<svg
   width="259.38672"
   height="78.707031"
   viewBox="0 0 259.38672 78.707031"
   version="1.1"
   id="svg48"
   xmlns="http://www.w3.org/2000/svg"
   xmlns:svg="http://www.w3.org/2000/svg">
  <defs
     id="defs48" />
  <path
     fill-rule="nonzero"
     fill="#000000"
     fill-opacity="1"
     d="m 142.78125,0.414062 h 2.6914 v 16.875 h -2.6914 z m -13.57813,3.73047 c -0.76172,0.77344 -1.13672,1.80469 -1.13672,3.10937 0,1.30469 0.375,2.33594 1.13672,3.10938 0.75782,0.77344 1.76953,1.15625 3.03516,1.15625 1.26562,0 2.28125,-0.38281 3.04687,-1.15625 0.76563,-0.77344 1.15625,-1.80469 1.15625,-3.10938 0,-1.30468 -0.38281,-2.33593 -1.15625,-3.10937 -0.76953,-0.76953 -1.78515,-1.15235 -3.04687,-1.15235 -1.25781,0 -2.27734,0.38282 -3.03516,1.15235 m 16.80078,16.1914 v 2.55079 h -18.73828 v -7.48829 h 2.72657 v 4.94532 H 146.0039 Z M 135.86328,1.464842 c 1.03906,0.5625 1.83594,1.34766 2.39844,2.35547 0.55859,1.00391 0.84375,2.15234 0.84375,3.43359 0,1.28125 -0.28516,2.42578 -0.84375,3.4375 -0.5625,1.00391 -1.35938,1.79297 -2.39844,2.35157 -1.03906,0.5625 -2.24219,0.84375 -3.625,0.84375 -1.38281,0 -2.58984,-0.28125 -3.625,-0.84375 -1.03906,-0.5586 -1.83594,-1.34766 -2.39844,-2.35157 -0.55859,-1.0039 -0.84375,-2.15625 -0.84375,-3.4375 0,-1.28125 0.28516,-2.42578 0.84375,-3.43359 0.5625,-1.00781 1.35938,-1.79297 2.39844,-2.35547 1.03906,-0.5625 2.24219,-0.84375 3.625,-0.84375 1.38281,0 2.59375,0.28125 3.625,0.84375"
     id="path1" />
  <path
     fill-rule="nonzero"
     fill="#000000"
     fill-opacity="1"
     d="m 165.73828,0.414062 h 2.66406 v 16.96484 h -2.66406 v -8.28906 h -4.02344 v -2.57422 h 4.02344 z m 3.10937,22.47266 h -18.94531 v -6.48438 h 2.72656 v 3.96875 h 16.22266 v 2.51563 z m -16.34375,-9.72657 c -1.20312,0.80078 -2.5625,1.27735 -4.08593,1.4375 v -2.48437 c 1.67578,-0.28125 3.03125,-1.02735 4.05859,-2.25 1.02734,-1.22266 1.625,-2.80469 1.80469,-4.73438 H 148.625 v -2.39843 h 5.65625 V 2e-6 h 2.6914 v 2.72656 h 5.57032 v 2.39453 h -5.57032 c -0.0586,0.91406 -0.20312,1.78906 -0.4414,2.63672 l 6.42187,4.59375 -1.39453,2.12891 -6.15625,-4.46875 c -0.73437,1.30468 -1.69922,2.35546 -2.90234,3.15234 z m 0,0"
     id="path2" />
  <path
     fill-rule="nonzero"
     fill="#f96a2c"
     fill-opacity="1"
     d="m 1e-6,5.726562 h 11.42578 v 11.42969 H 10e-7 Z m 0,0"
     id="path3" />
  <path
     fill-rule="nonzero"
     fill="#55b648"
     fill-opacity="1"
     d="m 25.316401,5.726562 h 11.42969 v 11.42969 h -11.42969 z m 0,0"
     id="path4" />
  <path
     fill-rule="nonzero"
     fill="#cfdb51"
     fill-opacity="1"
     d="m 50.632811,5.726562 h 11.42969 v 11.42969 h -11.42969 z m 0,0"
     id="path5" />
  <path
     fill-rule="nonzero"
     fill="#804f9f"
     fill-opacity="1"
     d="m 75.953121,5.726562 h 11.42969 v 11.42969 h -11.42969 z m 0,0"
     id="path6" />
  <path
     fill-rule="nonzero"
     fill="#e53d66"
     fill-opacity="1"
     d="m 101.26953,5.726562 h 11.42969 v 11.42969 h -11.42969 z m 0,0"
     id="path7" />
  <path
     fill-rule="nonzero"
     fill="#000000"
     fill-opacity="1"
     d="m 54.390621,72.628902 -4.30078,-4.30468 h -17.48437 v -5.47266 h 19.43359 v -8.37109 h -38.42578 v -3.32813 h 37.83594 v -15.40625 l -4.22266,-4.22266 H 2.941401 v 8.36719 h 37.98438 v 3.26563 H 3.019531 v 15.10156 l 4.59375,4.59375 h 14.24609 v 5.47266 H 9.9999994e-7 v 4.23828 L 4.445311,77.007812 h 49.94531 z m 0,0"
     id="path8" />
  <path
     fill-rule="nonzero"
     fill="#000000"
     fill-opacity="1"
     d="m 158.39453,71.285152 h -27.16016 v -3.20703 h 27.16016 z m 6.01172,-13.40625 h -6.00391 v 2.95703 h -27.16406 v -2.95703 h -10.45313 v 16.38282 l 4.44922,4.44531 h 43.61719 v -16.38281 z m 0,0"
     id="path9" />
  <path
     fill-rule="nonzero"
     fill="#000000"
     fill-opacity="1"
     d="m 158.25,30.390622 v 8.6211 h -7.875 v -8.05469 h -32.53516 v 6.92187 h 22.44922 v 2.32422 h -22.44922 v 6.73438 h 18.69531 c -1.8164,0.96484 -4.25781,1.63672 -7.32031,2.01562 -3.07031,0.37891 -6.85547,0.56641 -11.375,0.56641 v 7.04297 c 6.8711,0 12.85547,-0.71094 17.95703,-2.13672 5.10157,-1.42578 8.90235,-3.64453 11.40625,-6.66797 h 11.04297 v 8.43359 h 10.59375 v -21.39453 l -4.39453,-4.39453 h -6.19922 z m 0,0"
     id="path10" />
  <path
     fill-rule="nonzero"
     fill="#000000"
     fill-opacity="1"
     d="m 71.761721,46.117182 h 27.52734 v 6.03907 h -27.52734 z m 36.480469,21.95313 H 90.902341 v -7.35938 h 18.843749 v -24.77343 l -4.41406,-4.41407 h -6.039059 v 6.16797 h -27.52735 v -6.16797 h -10.52343 v 24.78125 l 4.41406,4.41016 h 14.5039 v 7.35938 h -21.85937 v 4.49218 l 4.44531,4.44532 h 49.953129 v -4.48829 l -4.44532,-4.44921 z m 0,0"
     id="path11" />
  <path
     fill-rule="nonzero"
     fill="#ccdb28"
     fill-opacity="1"
     d="m 233.25,2e-6 h 13.0664 v 10.17578 H 233.25 Z m 0,0"
     id="path12" />
  <path
     fill-rule="nonzero"
     fill="#77bd44"
     fill-opacity="1"
     d="m 246.3164,10.175782 h 13.06641 v 18.9414 H 246.3164 Z m 0,0"
     id="path13" />
  <path
     fill-rule="nonzero"
     fill="#55b648"
     fill-opacity="1"
     d="M 259.38281,10.175782 246.3164,2e-6 v 10.17578 z m 0,0"
     id="path14" />
  <path
     fill-rule="nonzero"
     fill="#f19e27"
     fill-opacity="1"
     d="m 194.05859,14.511722 h 13.0625 v 10.17578 h -13.0625 z m 0,0"
     id="path15" />
  <path
     fill-rule="nonzero"
     fill="#ccdb28"
     fill-opacity="1"
     d="m 233.25,29.117182 h 13.0664 v 10.17579 H 233.25 Z m 0,0"
     id="path16" />
  <path
     fill-rule="nonzero"
     fill="#55b648"
     fill-opacity="1"
     d="m 246.3164,29.117182 h 13.06641 v 10.17579 H 246.3164 Z m 0,0"
     id="path17" />
  <path
     fill-rule="nonzero"
     fill="#f6811f"
     fill-opacity="1"
     d="m 194.05859,29.117182 h 26.12891 v 10.17579 h -26.12891 z m 0,0"
     id="path18" />
  <path
     fill-rule="nonzero"
     fill="#f6811f"
     fill-opacity="1"
     d="m 180.99219,2e-6 h 26.1289 v 10.17578 h -26.1289 z m 0,0"
     id="path19" />
  <path
     fill-rule="nonzero"
     fill="#f19e27"
     fill-opacity="1"
     d="m 220.1875,2e-6 v 10.17578 h -13.06641 v 4.33594 h 13.06641 z m 0,0"
     id="path20" />
  <path
     fill-rule="nonzero"
     fill="#f16223"
     fill-opacity="1"
     d="m 207.12109,14.511722 h 13.06641 v 10.17578 h -13.06641 z m 0,0"
     id="path21" />
  <path
     fill-rule="nonzero"
     fill="#f16223"
     fill-opacity="1"
     d="m 207.12109,2e-6 v 10.17578 h 13.06641 z m 0,0"
     id="path22" />
  <path
     fill-rule="nonzero"
     fill="#77bd44"
     fill-opacity="1"
     d="M 220.1875,2e-6 H 233.25 v 29.11718 h -13.0625 z m 0,0"
     id="path23" />
  <path
     fill-rule="nonzero"
     fill="#55b648"
     fill-opacity="1"
     d="M 220.1875,2e-6 H 233.25 v 10.17578 h -13.0625 z m 0,0"
     id="path24" />
  <path
     fill-rule="nonzero"
     fill="#55b648"
     fill-opacity="1"
     d="m 220.1875,29.117182 13.0625,10.17969 v -10.17969 z m 0,0"
     id="path25" />
  <path
     fill-rule="nonzero"
     fill="#f19e27"
     fill-opacity="1"
     d="m 180.99219,24.687502 h 13.0664 v 4.42968 h -13.0664 z m 0,0"
     id="path26" />
  <path
     fill-rule="nonzero"
     fill="#e8621f"
     fill-opacity="1"
     d="m 180.99219,14.511722 h 13.0664 v 10.17578 h -13.0664 z m 0,0"
     id="path27" />
  <path
     fill-rule="nonzero"
     fill="#e8621f"
     fill-opacity="1"
     d="m 194.05859,29.117182 h -13.0664 l 13.0664,10.17969 z m 0,0"
     id="path28" />
  <path
     fill-rule="nonzero"
     fill="#6b60ab"
     fill-opacity="1"
     d="m 194.05859,53.804682 h 13.0625 v 10.17969 h -13.0625 z m 0,0"
     id="path29" />
  <path
     fill-rule="nonzero"
     fill="#a77cb6"
     fill-opacity="1"
     d="m 194.05859,68.414062 h 26.12891 v 10.29297 h -26.12891 z m 0,0"
     id="path30" />
  <path
     fill-rule="nonzero"
     fill="#a77cb6"
     fill-opacity="1"
     d="m 180.99219,39.292972 h 26.1289 v 10.17968 h -26.1289 z m 0,0"
     id="path31" />
  <path
     fill-rule="nonzero"
     fill="#a77cb6"
     fill-opacity="1"
     d="m 207.12109,49.472652 h 13.06641 v 4.33203 h -13.06641 z m 0,0"
     id="path32" />
  <path
     fill-rule="nonzero"
     fill="#58469b"
     fill-opacity="1"
     d="m 207.12109,53.804682 h 13.06641 v 10.17969 h -13.06641 z m 0,0"
     id="path33" />
  <path
     fill-rule="nonzero"
     fill="#804f9f"
     fill-opacity="1"
     d="m 207.12109,39.296872 v 10.17578 h 13.06641 z m 0,0"
     id="path34" />
  <path
     fill-rule="nonzero"
     fill="#a77cb6"
     fill-opacity="1"
     d="m 180.99219,63.984372 h 13.0664 v 4.4375 h -13.0664 z m 0,0"
     id="path35" />
  <path
     fill-rule="nonzero"
     fill="#58469b"
     fill-opacity="1"
     d="m 180.99219,53.804682 h 13.0664 v 10.17969 h -13.0664 z m 0,0"
     id="path36" />
  <path
     fill-rule="nonzero"
     fill="#804f9f"
     fill-opacity="1"
     d="m 194.05859,68.421872 h -13.0664 l 13.0664,10.28516 z m 0,0"
     id="path37" />
  <path
     fill-rule="nonzero"
     fill="#de9dc5"
     fill-opacity="1"
     d="m 233.25,53.804682 h 13.0664 v 10.17969 H 233.25 Z m 0,0"
     id="path38" />
  <path
     fill-rule="nonzero"
     fill="#de9dc5"
     fill-opacity="1"
     d="m 233.25,68.414062 h 13.0664 v 10.29297 H 233.25 Z m 0,0"
     id="path39" />
  <path
     fill-rule="nonzero"
     fill="#eea7b9"
     fill-opacity="1"
     d="m 233.25,39.296872 v 10.17578 h 26.13281 v -10.17578 z m 0,0"
     id="path40" />
  <path
     fill-rule="nonzero"
     fill="#e53d66"
     fill-opacity="1"
     d="M 220.1875,63.984372 H 233.25 v 4.42969 h -13.0625 z m 0,0"
     id="path41" />
  <path
     fill-rule="nonzero"
     fill="#e65071"
     fill-opacity="1"
     d="M 220.1875,49.472652 H 233.25 v 4.33203 h -13.0625 z m 0,0"
     id="path42" />
  <path
     fill-rule="nonzero"
     fill="#dc3c70"
     fill-opacity="1"
     d="M 220.1875,53.804682 H 233.25 v 10.17969 h -13.0625 z m 0,0"
     id="path43" />
  <path
     fill-rule="nonzero"
     fill="#dc3c70"
     fill-opacity="1"
     d="M 220.1875,68.414062 H 233.25 v 10.29297 h -13.0625 z m 0,0"
     id="path44" />
  <path
     fill-rule="nonzero"
     fill="#e53d66"
     fill-opacity="1"
     d="M 220.1875,49.472652 H 233.25 v -10.17578 z m 0,0"
     id="path45" />
  <path
     fill-rule="nonzero"
     fill="#e53d66"
     fill-opacity="1"
     d="m 246.3164,63.984372 h 13.06641 v 4.42969 H 246.3164 Z m 0,0"
     id="path46" />
  <path
     fill-rule="nonzero"
     fill="#dc3c70"
     fill-opacity="1"
     d="m 246.3164,53.804682 h 13.06641 v 10.17969 H 246.3164 Z m 0,0"
     id="path47" />
  <path
     fill-rule="nonzero"
     fill="#dc3c70"
     fill-opacity="1"
     d="m 246.3164,78.707032 13.07032,-10.29297 H 246.3164 Z m 0,0"
     id="path48" />
</svg>
