<?xml version="1.0" encoding="UTF-8" standalone="no"?>
<svg
   width="105.04688"
   height="151.94141"
   viewBox="0 0 105.04688 151.94141"
   version="1.1"
   id="svg56"
   xmlns="http://www.w3.org/2000/svg"
   xmlns:svg="http://www.w3.org/2000/svg">
  <defs
     id="defs56" />
  <path
     fill-rule="nonzero"
     fill="#000000"
     fill-opacity="1"
     d="m 8.886715,134.95703 c 0,-0.77343 -0.30078,-1.34765 -0.90234,-1.71875 -0.60156,-0.36718 -1.44531,-0.55078 -2.53125,-0.55078 h -1.21094 v 4.82813 h 1.03516 c 1.13281,0 2.02344,-0.22266 2.66015,-0.67188 0.63282,-0.44922 0.95313,-1.07422 0.95313,-1.88672 z m 4.07813,-0.0781 c 0,1.15234 -0.32031,2.16015 -0.96875,3.01953 -0.64453,0.86328 -1.54297,1.51562 -2.69922,1.96094 l 5.65625,6.76562 h -5.21875 l -4.72266,-5.96094 h -0.77343 v 5.96094 h -4.23047 v -17.19533 h 5.47265 c 1.06641,0 2.05469,0.11328 2.96875,0.33984 0.91016,0.22266 1.70313,0.5586 2.375,1.00391 0.66797,0.44922 1.19532,1.01172 1.57422,1.69141 0.37891,0.67968 0.57031,1.48437 0.57031,2.41406 z m 0,0"
     id="path1" />
  <path
     fill-rule="nonzero"
     fill="#000000"
     fill-opacity="1"
     d="m 24.839845,140.30078 c 0,-0.44922 -0.043,-0.88281 -0.12891,-1.30468 -0.0859,-0.42188 -0.22656,-0.80079 -0.42578,-1.13672 -0.19922,-0.33594 -0.46484,-0.60157 -0.80078,-0.80078 -0.33594,-0.19922 -0.75391,-0.29688 -1.25,-0.29688 -0.5,0 -0.91797,0.0977 -1.25,0.29688 -0.33984,0.19921 -0.60547,0.46484 -0.80469,0.80078 -0.19531,0.33593 -0.33984,0.71484 -0.42578,1.13672 -0.0859,0.42187 -0.12891,0.85546 -0.12891,1.30468 0,0.44532 0.0469,0.88282 0.12891,1.30078 0.0898,0.42188 0.23047,0.80469 0.42578,1.13672 0.19922,0.33594 0.46485,0.60157 0.80469,0.80078 0.33594,0.19922 0.75,0.29688 1.25,0.29688 0.49609,0 0.91797,-0.0977 1.25,-0.29688 0.33594,-0.19921 0.60156,-0.46484 0.80078,-0.80078 0.19922,-0.33593 0.33984,-0.71484 0.42578,-1.13672 0.0859,-0.41796 0.12891,-0.85546 0.12891,-1.30078 m 4.1289,0 c 0,0.92578 -0.14453,1.79297 -0.4375,2.59375 -0.29296,0.80078 -0.72265,1.4961 -1.28906,2.08985 -0.57031,0.59375 -1.27344,1.05859 -2.11719,1.39453 -0.84375,0.33594 -1.80859,0.5039 -2.89062,0.5039 -1.08594,0 -2.04688,-0.16796 -2.89453,-0.5039 -0.84375,-0.33594 -1.54688,-0.80078 -2.11719,-1.39453 -0.56641,-0.59375 -0.99609,-1.28907 -1.28906,-2.08985 -0.29297,-0.80078 -0.4375,-1.66797 -0.4375,-2.59375 0,-0.92968 0.14453,-1.79297 0.4375,-2.59375 0.29297,-0.80078 0.72265,-1.5 1.28906,-2.09375 0.57031,-0.58984 1.27344,-1.05859 2.11719,-1.39453 0.84375,-0.33594 1.80859,-0.5 2.89453,-0.5 1.08203,0 2.04687,0.16406 2.89062,0.5 0.84375,0.33594 1.54688,0.80469 2.11719,1.39453 0.57031,0.59375 0.9961,1.29297 1.28906,2.09375 0.29297,0.80078 0.4375,1.66407 0.4375,2.59375"
     id="path2" />
  <path
     fill-rule="nonzero"
     fill="#000000"
     fill-opacity="1"
     d="m 37.308595,136.86719 c -0.77344,0 -1.45313,0.23047 -2.03906,0.69531 v 5.98828 c 0.1875,0.0899 0.41406,0.15625 0.67187,0.20703 0.25781,0.0508 0.52344,0.0781 0.80078,0.0781 0.53125,0 0.9961,-0.0937 1.39453,-0.28516 0.39453,-0.1875 0.71094,-0.44531 0.95313,-0.77343 0.24219,-0.32813 0.42187,-0.70704 0.54297,-1.13282 0.12109,-0.43359 0.18359,-0.89843 0.18359,-1.39453 0,-1.03515 -0.20703,-1.85547 -0.60937,-2.46875 -0.40235,-0.60937 -1.03907,-0.91406 -1.89844,-0.91406 m -6.16797,-8.46875 h 4.12891 v 6.55859 c 0.35937,-0.36328 0.79687,-0.66015 1.30468,-0.89062 0.50782,-0.23438 1.14844,-0.34766 1.92188,-0.34766 0.82812,0 1.57812,0.15625 2.24609,0.47656 0.67188,0.31641 1.2461,0.76563 1.71875,1.33985 0.47266,0.57812 0.83594,1.26172 1.09375,2.05469 0.26172,0.78906 0.38672,1.66015 0.38672,2.60546 0,0.94532 -0.14844,1.77735 -0.44922,2.59375 -0.30469,0.82032 -0.7539,1.52735 -1.35547,2.12891 -0.60547,0.60547 -1.36328,1.08203 -2.27343,1.43359 -0.91407,0.35547 -1.98047,0.53125 -3.20313,0.53125 -1.03125,0 -2.01562,-0.11328 -2.95312,-0.33593 -0.9375,-0.22266 -1.79297,-0.53516 -2.56641,-0.92969 z m 0,0"
     id="path3" />
  <path
     fill-rule="nonzero"
     fill="#000000"
     fill-opacity="1"
     d="m 54.761715,140.30078 c 0,-0.44922 -0.0469,-0.88281 -0.1289,-1.30468 -0.0859,-0.42188 -0.22657,-0.80079 -0.42578,-1.13672 -0.19922,-0.33594 -0.46485,-0.60157 -0.80079,-0.80078 -0.33984,-0.19922 -0.7539,-0.29688 -1.25,-0.29688 -0.5,0 -0.91796,0.0977 -1.2539,0.29688 -0.33594,0.19921 -0.60156,0.46484 -0.80078,0.80078 -0.19922,0.33593 -0.33985,0.71484 -0.42578,1.13672 -0.0859,0.42187 -0.12891,0.85546 -0.12891,1.30468 0,0.44532 0.043,0.88282 0.12891,1.30078 0.0859,0.42188 0.22656,0.80469 0.42578,1.13672 0.19922,0.33594 0.46484,0.60157 0.80078,0.80078 0.33594,0.19922 0.7539,0.29688 1.2539,0.29688 0.4961,0 0.91407,-0.0977 1.25,-0.29688 0.33594,-0.19921 0.60157,-0.46484 0.80079,-0.80078 0.19921,-0.33593 0.33984,-0.71484 0.42578,-1.13672 0.082,-0.41796 0.1289,-0.85546 0.1289,-1.30078 m 4.12891,0 c 0,0.92578 -0.14844,1.79297 -0.4375,2.59375 -0.29297,0.80078 -0.72266,1.4961 -1.28906,2.08985 -0.57032,0.59375 -1.27344,1.05859 -2.11719,1.39453 -0.84375,0.33594 -1.80859,0.5039 -2.89063,0.5039 -1.08593,0 -2.05078,-0.16796 -2.89453,-0.5039 -0.84375,-0.33594 -1.54687,-0.80078 -2.11718,-1.39453 -0.56641,-0.59375 -0.9961,-1.28907 -1.28907,-2.08985 -0.29297,-0.80078 -0.4375,-1.66797 -0.4375,-2.59375 0,-0.92968 0.14453,-1.79297 0.4375,-2.59375 0.29297,-0.80078 0.72266,-1.5 1.28907,-2.09375 0.57031,-0.58984 1.27343,-1.05859 2.11718,-1.39453 0.84375,-0.33594 1.8086,-0.5 2.89453,-0.5 1.08204,0 2.04688,0.16406 2.89063,0.5 0.83984,0.33594 1.54687,0.80469 2.11719,1.39453 0.5664,0.59375 0.99609,1.29297 1.28906,2.09375 0.29297,0.80078 0.4375,1.66407 0.4375,2.59375"
     id="path4" />
  <path
     fill-rule="nonzero"
     fill="#000000"
     fill-opacity="1"
     d="m 69.683595,129.1211 c 0.89453,0 1.79297,0.0859 2.69531,0.25781 0.90234,0.17187 1.68359,0.41797 2.33594,0.74219 l -0.61719,3.10546 c -0.51562,-0.20703 -1.10937,-0.38281 -1.76953,-0.53125 -0.66406,-0.14453 -1.32031,-0.21875 -1.97656,-0.21875 -1.75391,0 -3.14063,0.45704 -4.15625,1.375 -1.01563,0.91797 -1.51953,2.3086 -1.51953,4.17188 0,1.86719 0.50781,3.26172 1.51953,4.17578 1.01953,0.91797 2.40234,1.375 4.15625,1.375 0.65625,0 1.3125,-0.0742 1.97656,-0.21875 0.66016,-0.14844 1.25,-0.32422 1.76953,-0.53125 l 0.61719,3.10547 c -0.65235,0.32422 -1.4336,0.57031 -2.33594,0.74219 -0.90234,0.16797 -1.80078,0.2539 -2.69531,0.2539 -1.51563,0 -2.85156,-0.21875 -4.00391,-0.66797 -1.15625,-0.44921 -2.11719,-1.0664 -2.89453,-1.85937 -0.77344,-0.78906 -1.35937,-1.73047 -1.75391,-2.8125 -0.39453,-1.08594 -0.58984,-2.27344 -0.58984,-3.5625 0,-1.28906 0.19531,-2.48047 0.58984,-3.5625 0.39844,-1.08594 0.98047,-2.02344 1.75391,-2.81641 0.77734,-0.78906 1.73828,-1.41015 2.89453,-1.85937 1.15235,-0.44531 2.48828,-0.66797 4.00391,-0.66797 z m 0,0"
     id="path5" />
  <path
     fill-rule="nonzero"
     fill="#000000"
     fill-opacity="1"
     d="m 89.144535,133.97266 v 12.64844 h -3.97266 v -1.65235 c -0.48438,0.72656 -1.02734,1.22266 -1.62891,1.5 -0.60156,0.27344 -1.23828,0.41406 -1.91015,0.41406 -0.84375,0 -1.55078,-0.17578 -2.12891,-0.53125 -0.57422,-0.35156 -1.03906,-0.82421 -1.39453,-1.40625 -0.35156,-0.58593 -0.60547,-1.26171 -0.76172,-2.02343 -0.15234,-0.76563 -0.23047,-1.57032 -0.23047,-2.41407 v -6.53125 h 4.12891 v 6.60938 c 0,1.05078 0.14453,1.82031 0.4375,2.3125 0.29297,0.48828 0.77734,0.73437 1.44531,0.73437 0.43359,0 0.80469,-0.0937 1.125,-0.28515 0.31641,-0.1875 0.57031,-0.42188 0.76172,-0.69531 v -8.67188 h 4.12891 z m 0,0"
     id="path6" />
  <path
     fill-rule="nonzero"
     fill="#000000"
     fill-opacity="1"
     d="m 98.492185,136.89063 c -0.46484,0 -0.87109,0.0742 -1.21094,0.22265 -0.34375,0.14844 -0.64843,0.36328 -0.90625,0.65625 v 5.86328 c 0.19141,0.0664 0.40625,0.1211 0.64844,0.15625 0.24219,0.0312 0.51563,0.0469 0.82422,0.0469 1.08594,0 1.86719,-0.32813 2.351555,-0.99219 0.48047,-0.66406 0.72266,-1.55469 0.72266,-2.67187 0,-0.92969 -0.19531,-1.70703 -0.58203,-2.33594 -0.386715,-0.62891 -0.999995,-0.94141 -1.847655,-0.94141 z m -6.25,-2.91797 h 3.94922 v 1.5 c 0.82813,-1.17188 2.09375,-1.75391 3.79688,-1.75391 0.707025,0 1.367175,0.14844 1.984365,0.45313 0.62109,0.30078 1.16016,0.72656 1.61719,1.28906 0.45312,0.55859 0.8125,1.23437 1.07031,2.02344 0.25781,0.79297 0.38672,1.67968 0.38672,2.66015 0,1.11719 -0.17578,2.09375 -0.52734,2.92969 -0.35547,0.83594 -0.82813,1.53906 -1.42188,2.10547 -0.59375,0.56641 -1.28906,0.99219 -2.07812,1.27734 -0.79297,0.28125 -1.636715,0.42578 -2.531245,0.42578 -0.44922,0 -0.84375,-0.0312 -1.1875,-0.0898 -0.34766,-0.0625 -0.65625,-0.13281 -0.92969,-0.22266 v 5.3711 h -4.13281 V 133.9727 Z m 0,0"
     id="path7" />
  <path
     fill-rule="nonzero"
     fill="#000000"
     fill-opacity="1"
     d="m 55.929685,121.14844 h -1.17969 v -8.54688 h 1.17969 z m 0,0"
     id="path8" />
  <path
     fill-rule="nonzero"
     fill="#000000"
     fill-opacity="1"
     d="m 63.644535,121.14844 -4.78907,-6.71094 v 6.71094 h -1.1289 v -8.54688 h 1.1289 l 4.78907,6.71485 v -6.71485 h 1.1289 v 8.54688 z m 0,0"
     id="path9" />
  <path
     fill-rule="nonzero"
     fill="#000000"
     fill-opacity="1"
     d="m 70.472655,112.44922 c 0.38672,0 0.78516,0.0352 1.20703,0.10547 0.41797,0.0742 0.76953,0.17187 1.05469,0.28906 l -0.19141,0.91406 c -0.28906,-0.10156 -0.60156,-0.1875 -0.9375,-0.25 -0.33203,-0.0625 -0.66406,-0.0976 -0.98828,-0.0976 -1.0664,0 -1.90234,0.30078 -2.5,0.89844 -0.59765,0.59765 -0.89844,1.45312 -0.89844,2.5664 0,1.11328 0.30079,1.96875 0.89844,2.57031 0.59766,0.59766 1.4336,0.89454 2.5,0.89454 0.32422,0 0.65625,-0.0312 0.98828,-0.0937 0.33594,-0.0664 0.64844,-0.14844 0.9375,-0.25 l 0.19141,0.91015 c -0.28516,0.1211 -0.63672,0.21875 -1.05469,0.28906 -0.41797,0.0742 -0.82031,0.10938 -1.20703,0.10938 -0.70312,0 -1.32812,-0.10938 -1.87891,-0.33594 -0.55078,-0.21875 -1.01562,-0.52734 -1.39062,-0.92187 -0.37891,-0.39453 -0.66797,-0.85938 -0.86719,-1.39844 -0.20312,-0.53906 -0.30469,-1.13281 -0.30469,-1.77344 0,-0.64062 0.10157,-1.23047 0.30469,-1.76953 0.19922,-0.53906 0.48828,-1.00391 0.86719,-1.39844 0.375,-0.39453 0.83984,-0.70312 1.39062,-0.92578 0.55079,-0.22265 1.17579,-0.33203 1.87891,-0.33203"
     id="path10" />
  <path
     fill-rule="nonzero"
     fill="#000000"
     fill-opacity="1"
     d="m 79.574215,121.14844 v -3.83594 h -4.3789 v 3.83594 h -1.1836 v -8.54688 h 1.1836 v 3.71094 h 4.3789 v -3.71094 h 1.17969 v 8.54688 z m 0,0"
     id="path11" />
  <path
     fill-rule="nonzero"
     fill="#000000"
     fill-opacity="1"
     d="m 82.484375,112.60156 h 4.76562 v 0.96485 h -3.58203 v 2.73437 h 3.42578 v 0.96094 h -3.42578 v 2.92578 h 3.6211 v 0.96485 h -4.80469 z m 0,0"
     id="path12" />
  <path
     fill-rule="nonzero"
     fill="#000000"
     fill-opacity="1"
     d="m 92.433595,120.35547 c 0.48828,0 0.91797,-0.0937 1.29687,-0.26953 0.375,-0.17969 0.6875,-0.42969 0.9375,-0.74609 0.2461,-0.31641 0.4336,-0.6875 0.5625,-1.10938 0.12891,-0.42578 0.19141,-0.875 0.19141,-1.35547 0,-0.47656 -0.0664,-0.92969 -0.19141,-1.35547 -0.1289,-0.42187 -0.3164,-0.78906 -0.5625,-1.10156 -0.25,-0.3125 -0.5625,-0.5625 -0.9375,-0.74609 -0.375,-0.1836 -0.80859,-0.27344 -1.29687,-0.27344 -0.49219,0 -0.92188,0.0898 -1.29688,0.27344 -0.3789,0.18359 -0.6914,0.43359 -0.9375,0.74609 -0.25,0.3125 -0.4375,0.67969 -0.5625,1.10156 -0.1289,0.42578 -0.19531,0.87891 -0.19531,1.35547 0,0.48047 0.0664,0.92969 0.19531,1.35547 0.125,0.42188 0.31641,0.79297 0.5625,1.10938 0.25,0.3164 0.5586,0.5625 0.9375,0.74609 0.375,0.17578 0.80469,0.26953 1.29688,0.26953 m 0,0.94922 c -0.66797,0 -1.26563,-0.12109 -1.78516,-0.35938 -0.51953,-0.24218 -0.95703,-0.5625 -1.30859,-0.96484 -0.35156,-0.40234 -0.61719,-0.87109 -0.80078,-1.41016 -0.1836,-0.53906 -0.27735,-1.10546 -0.27735,-1.69531 0,-0.58984 0.0937,-1.15234 0.27735,-1.69531 0.18359,-0.53516 0.45312,-1.00781 0.80078,-1.40625 0.35156,-0.40234 0.78515,-0.72656 1.30859,-0.96484 0.52344,-0.23829 1.11719,-0.35938 1.78516,-0.35938 0.66406,0 1.25781,0.12109 1.78125,0.35938 0.52344,0.23828 0.96094,0.5625 1.30859,0.96484 0.35156,0.39844 0.61719,0.87109 0.80469,1.40625 0.18359,0.54297 0.27344,1.10547 0.27344,1.69531 0,0.58985 -0.0899,1.15625 -0.27344,1.69531 -0.1875,0.53907 -0.45313,1.00782 -0.80469,1.41016 -0.34765,0.40234 -0.78515,0.72266 -1.30859,0.96484 -0.52344,0.23829 -1.11328,0.35938 -1.78125,0.35938"
     id="path13" />
  <path
     fill-rule="nonzero"
     fill="#000000"
     fill-opacity="1"
     d="m 103.80468,121.14844 -4.789055,-6.71094 v 6.71094 h -1.12891 v -8.54688 h 1.12891 l 4.789055,6.71485 v -6.71485 h 1.12891 v 8.54688 z m 0,0"
     id="path14" />
  <path
     fill-rule="nonzero"
     fill="#f96a2c"
     fill-opacity="1"
     d="m 0.007815,114.17969 h 4.98047 v 4.98437 h -4.98047 z m 0,0"
     id="path15" />
  <path
     fill-rule="nonzero"
     fill="#55b648"
     fill-opacity="1"
     d="m 10.589845,114.17969 h 4.98047 v 4.98437 h -4.98047 z m 0,0"
     id="path16" />
  <path
     fill-rule="nonzero"
     fill="#cfdb51"
     fill-opacity="1"
     d="m 21.171875,114.17969 h 4.98047 v 4.98437 h -4.98047 z m 0,0"
     id="path17" />
  <path
     fill-rule="nonzero"
     fill="#804f9f"
     fill-opacity="1"
     d="m 31.757815,114.17969 h 4.98047 v 4.98437 h -4.98047 z m 0,0"
     id="path18" />
  <path
     fill-rule="nonzero"
     fill="#e53d66"
     fill-opacity="1"
     d="m 42.339845,114.17969 h 4.98047 v 4.98437 h -4.98047 z m 0,0"
     id="path19" />
  <path
     fill-rule="nonzero"
     fill="#ccdb28"
     fill-opacity="1"
     d="m 69.949215,-2e-6 h 17.48828 v 13.6211 h -17.48828 z m 0,0"
     id="path20" />
  <path
     fill-rule="nonzero"
     fill="#77bd44"
     fill-opacity="1"
     d="m 87.437495,13.621098 h 17.496095 v 25.35546 H 87.437495 Z m 0,0"
     id="path21" />
  <path
     fill-rule="nonzero"
     fill="#55b648"
     fill-opacity="1"
     d="M 104.93359,13.621098 87.437495,-2e-6 v 13.6211 z m 0,0"
     id="path22" />
  <path
     fill-rule="nonzero"
     fill="#f19e27"
     fill-opacity="1"
     d="m 17.488285,19.421878 h 17.48828 v 13.625 h -17.48828 z m 0,0"
     id="path23" />
  <path
     fill-rule="nonzero"
     fill="#ccdb28"
     fill-opacity="1"
     d="m 69.949215,38.976558 h 17.48828 v 13.625 h -17.48828 z m 0,0"
     id="path24" />
  <path
     fill-rule="nonzero"
     fill="#55b648"
     fill-opacity="1"
     d="m 87.437495,38.976558 h 17.496095 v 13.625 H 87.437495 Z m 0,0"
     id="path25" />
  <path
     fill-rule="nonzero"
     fill="#f6811f"
     fill-opacity="1"
     d="m 17.488285,38.976558 h 34.97656 v 13.625 h -34.97656 z m 0,0"
     id="path26" />
  <path
     fill-rule="nonzero"
     fill="#f6811f"
     fill-opacity="1"
     d="m -5e-6,-2e-6 h 34.97657 v 13.6211 H -5e-6 Z m 0,0"
     id="path27" />
  <path
     fill-rule="nonzero"
     fill="#f19e27"
     fill-opacity="1"
     d="m 52.464845,-2e-6 v 13.6211 h -17.48828 v 5.80078 h 17.48828 z m 0,0"
     id="path28" />
  <path
     fill-rule="nonzero"
     fill="#f16223"
     fill-opacity="1"
     d="m 34.976565,19.421878 h 17.48828 v 13.625 h -17.48828 z m 0,0"
     id="path29" />
  <path
     fill-rule="nonzero"
     fill="#f16223"
     fill-opacity="1"
     d="m 34.976565,-2e-6 v 13.6211 h 17.48828 z m 0,0"
     id="path30" />
  <path
     fill-rule="nonzero"
     fill="#77bd44"
     fill-opacity="1"
     d="m 52.464845,-2e-6 h 17.48437 v 38.97656 h -17.48437 z m 0,0"
     id="path31" />
  <path
     fill-rule="nonzero"
     fill="#55b648"
     fill-opacity="1"
     d="m 52.464845,-2e-6 h 17.48437 v 13.6211 h -17.48437 z m 0,0"
     id="path32" />
  <path
     fill-rule="nonzero"
     fill="#55b648"
     fill-opacity="1"
     d="m 52.464845,38.976558 17.48437,13.625 v -13.625 z m 0,0"
     id="path33" />
  <path
     fill-rule="nonzero"
     fill="#f19e27"
     fill-opacity="1"
     d="m -5e-6,33.046878 h 17.48829 v 5.92968 H -5e-6 Z m 0,0"
     id="path34" />
  <path
     fill-rule="nonzero"
     fill="#e8621f"
     fill-opacity="1"
     d="m -5e-6,19.421878 h 17.48829 v 13.625 H -5e-6 Z m 0,0"
     id="path35" />
  <path
     fill-rule="nonzero"
     fill="#e8621f"
     fill-opacity="1"
     d="M 17.488285,38.976558 H -5e-6 l 17.48829,13.625 z m 0,0"
     id="path36" />
  <path
     fill-rule="nonzero"
     fill="#6b60ab"
     fill-opacity="1"
     d="m 17.488285,72.023438 h 17.48828 v 13.62109 h -17.48828 z m 0,0"
     id="path37" />
  <path
     fill-rule="nonzero"
     fill="#a77cb6"
     fill-opacity="1"
     d="m 17.488285,91.578128 h 34.97656 v 13.773432 h -34.97656 z m 0,0"
     id="path38" />
  <path
     fill-rule="nonzero"
     fill="#a77cb6"
     fill-opacity="1"
     d="m -5e-6,52.597658 h 34.97657 v 13.625 H -5e-6 Z m 0,0"
     id="path39" />
  <path
     fill-rule="nonzero"
     fill="#a77cb6"
     fill-opacity="1"
     d="m 34.976565,66.222658 h 17.48828 v 5.80078 h -17.48828 z m 0,0"
     id="path40" />
  <path
     fill-rule="nonzero"
     fill="#58469b"
     fill-opacity="1"
     d="m 34.976565,72.023438 h 17.48828 v 13.62109 h -17.48828 z m 0,0"
     id="path41" />
  <path
     fill-rule="nonzero"
     fill="#804f9f"
     fill-opacity="1"
     d="m 34.976565,52.597658 v 13.625 h 17.48828 z m 0,0"
     id="path42" />
  <path
     fill-rule="nonzero"
     fill="#a77cb6"
     fill-opacity="1"
     d="m -5e-6,85.644528 h 17.48829 v 5.94141 H -5e-6 Z m 0,0"
     id="path43" />
  <path
     fill-rule="nonzero"
     fill="#58469b"
     fill-opacity="1"
     d="m -5e-6,72.023438 h 17.48829 v 13.62109 H -5e-6 Z m 0,0"
     id="path44" />
  <path
     fill-rule="nonzero"
     fill="#804f9f"
     fill-opacity="1"
     d="M 17.488285,91.585938 H -5e-6 l 17.48829,13.769532 z m 0,0"
     id="path45" />
  <path
     fill-rule="nonzero"
     fill="#de9dc5"
     fill-opacity="1"
     d="m 69.949215,72.023438 h 17.48828 v 13.62109 h -17.48828 z m 0,0"
     id="path46" />
  <path
     fill-rule="nonzero"
     fill="#de9dc5"
     fill-opacity="1"
     d="m 69.949215,91.578128 h 17.48828 v 13.773432 h -17.48828 z m 0,0"
     id="path47" />
  <path
     fill-rule="nonzero"
     fill="#eea7b9"
     fill-opacity="1"
     d="m 69.953125,52.597658 v 13.625 h 34.980465 v -13.625 z m 0,0"
     id="path48" />
  <path
     fill-rule="nonzero"
     fill="#e53d66"
     fill-opacity="1"
     d="m 52.464845,85.644528 h 17.48437 v 5.9336 h -17.48437 z m 0,0"
     id="path49" />
  <path
     fill-rule="nonzero"
     fill="#e65071"
     fill-opacity="1"
     d="m 52.464845,66.222658 h 17.48437 v 5.80078 h -17.48437 z m 0,0"
     id="path50" />
  <path
     fill-rule="nonzero"
     fill="#dc3c70"
     fill-opacity="1"
     d="m 52.464845,72.023438 h 17.48437 v 13.62109 h -17.48437 z m 0,0"
     id="path51" />
  <path
     fill-rule="nonzero"
     fill="#dc3c70"
     fill-opacity="1"
     d="m 52.464845,91.578128 h 17.48437 v 13.773432 h -17.48437 z m 0,0"
     id="path52" />
  <path
     fill-rule="nonzero"
     fill="#e53d66"
     fill-opacity="1"
     d="m 52.464845,66.222658 h 17.48437 v -13.625 z m 0,0"
     id="path53" />
  <path
     fill-rule="nonzero"
     fill="#e53d66"
     fill-opacity="1"
     d="m 87.437495,85.644528 h 17.496095 v 5.9336 H 87.437495 Z m 0,0"
     id="path54" />
  <path
     fill-rule="nonzero"
     fill="#dc3c70"
     fill-opacity="1"
     d="m 87.437495,72.023438 h 17.496095 v 13.62109 H 87.437495 Z m 0,0"
     id="path55" />
  <path
     fill-rule="nonzero"
     fill="#dc3c70"
     fill-opacity="1"
     d="M 87.437495,105.35547 104.93359,91.578128 H 87.437495 Z m 0,0"
     id="path56" />
</svg>
