<?xml version="1.0" encoding="UTF-8" standalone="no"?>
<svg
   width="104.99609"
   height="160.54297"
   viewBox="0 0 104.99609 160.54297"
   version="1.1"
   id="svg48"
   xmlns="http://www.w3.org/2000/svg"
   xmlns:svg="http://www.w3.org/2000/svg">
  <defs
     id="defs48" />
  <path
     fill-rule="nonzero"
     fill="#000000"
     fill-opacity="1"
     d="m 88.796872,111.03125 h 1.67188 v 10.48047 h -1.67188 z m -8.43359,2.31641 c -0.47266,0.48047 -0.70703,1.12109 -0.70703,1.92969 0,0.8125 0.23437,1.45312 0.70703,1.93359 0.47265,0.48047 1.10156,0.71875 1.88672,0.71875 0.78515,0 1.41797,-0.23828 1.89453,-0.71875 0.47656,-0.48047 0.71484,-1.12109 0.71484,-1.93359 0,-0.8086 -0.23828,-1.44922 -0.71484,-1.92969 -0.48047,-0.47656 -1.10938,-0.71485 -1.89453,-0.71485 -0.78125,0 -1.41407,0.23829 -1.88672,0.71485 m 10.4375,10.05859 v 1.58203 h -11.64063 v -4.64843 h 1.69141 v 3.07031 h 9.94922 z m -6.29688,-11.72265 c 0.64063,0.34765 1.14063,0.83593 1.48828,1.46093 0.34766,0.625 0.52344,1.33985 0.52344,2.13282 0,0.80078 -0.17578,1.50781 -0.52344,2.13671 -0.34765,0.625 -0.84765,1.11329 -1.48828,1.46094 -0.64843,0.34766 -1.39453,0.52344 -2.2539,0.52344 -0.85938,0 -1.60938,-0.17578 -2.25,-0.52344 -0.64844,-0.34765 -1.14453,-0.83594 -1.49219,-1.46094 -0.34766,-0.625 -0.52344,-1.33593 -0.52344,-2.13671 0,-0.79297 0.17578,-1.50391 0.52344,-2.13282 0.34766,-0.625 0.84375,-1.11328 1.49219,-1.46093 0.64453,-0.34766 1.39062,-0.52344 2.25,-0.52344 0.85937,0 1.60937,0.17578 2.2539,0.52344"
     id="path1" />
  <path
     fill-rule="nonzero"
     fill="#000000"
     fill-opacity="1"
     d="m 103.05859,111.03125 h 1.65625 v 10.53906 h -1.65625 v -5.14843 h -2.5 v -1.60157 h 2.5 z m 1.93359,13.95703 H 93.222652 v -4.02734 h 1.69141 v 2.46484 h 10.078118 z m -10.152338,-6.03906 c -0.75,0.49609 -1.59375,0.79297 -2.53906,0.89063 v -1.54297 c 1.04297,-0.17188 1.88281,-0.63672 2.51953,-1.39453 0.64062,-0.76172 1.01172,-1.74219 1.12109,-2.94532 h -3.51172 v -1.48828 h 3.51172 v -1.69531 h 1.67188 v 1.69141 h 3.460938 v 1.49218 h -3.460938 c -0.0352,0.5625 -0.125,1.10938 -0.27344,1.63672 l 3.988278,2.85156 -0.86328,1.32422 -3.824218,-2.77734 c -0.45703,0.8125 -1.05469,1.46484 -1.80469,1.96094 z m 0,0"
     id="path2" />
  <path
     fill-rule="nonzero"
     fill="#f96a2c"
     fill-opacity="1"
     d="m 2e-6,114.37891 h 7.09765 v 7.09765 H 2e-6 Z m 0,0"
     id="path3" />
  <path
     fill-rule="nonzero"
     fill="#55b648"
     fill-opacity="1"
     d="m 15.742182,114.37891 h 7.10157 v 7.09765 h -7.10157 z m 0,0"
     id="path4" />
  <path
     fill-rule="nonzero"
     fill="#cfdb51"
     fill-opacity="1"
     d="m 31.488282,114.37891 h 7.10156 v 7.09765 h -7.10156 z m 0,0"
     id="path5" />
  <path
     fill-rule="nonzero"
     fill="#804f9f"
     fill-opacity="1"
     d="m 47.234372,114.37891 h 7.09766 v 7.09765 h -7.09766 z m 0,0"
     id="path6" />
  <path
     fill-rule="nonzero"
     fill="#e53d66"
     fill-opacity="1"
     d="m 62.976562,114.37891 h 7.10156 v 7.09765 h -7.10156 z m 0,0"
     id="path7" />
  <path
     fill-rule="nonzero"
     fill="#000000"
     fill-opacity="1"
     d="m 33.820312,156.76172 -2.67188,-2.67578 h -10.875 v -3.40234 h 12.08594 v -5.20313 H 8.464842 v -2.07422 h 23.52734 v -9.57812 l -2.625,-2.625 H 1.828122 v 5.19922 h 23.6211 v 2.03515 H 1.875002 v 9.38672 l 2.85937,2.85938 h 8.85547 v 3.40234 H 2.0000001e-6 v 2.63672 L 2.761722,159.48438 h 31.05859 z m 0,0"
     id="path8" />
  <path
     fill-rule="nonzero"
     fill="#000000"
     fill-opacity="1"
     d="m 98.492182,155.92578 h -16.89062 v -1.99218 h 16.89062 z m 3.738288,-8.33593 h -3.734378 v 1.83984 h -16.89062 v -1.83984 h -6.5 v 10.1875 l 2.76562,2.76562 h 27.124998 v -10.1875 z m 0,0"
     id="path9" />
  <path
     fill-rule="nonzero"
     fill="#000000"
     fill-opacity="1"
     d="m 98.402342,130.5 v 5.35938 h -4.89844 v -5.00782 h -20.23047 v 4.30469 h 13.95704 v 1.44531 h -13.95704 v 4.1875 h 11.625 c -1.1289,0.60157 -2.64843,1.01563 -4.55078,1.25 -1.91015,0.23829 -4.26562,0.35547 -7.07422,0.35547 v 4.37891 c 4.27344,0 7.99219,-0.44141 11.16407,-1.32813 3.17187,-0.88671 5.53906,-2.26953 7.09375,-4.14843 h 6.86718 v 5.24609 h 6.589848 v -13.30469 l -2.73438,-2.73437 h -3.855468 z m 0,0"
     id="path10" />
  <path
     fill-rule="nonzero"
     fill="#000000"
     fill-opacity="1"
     d="m 44.621092,140.27735 h 17.11719 v 3.7539 h -17.11719 z m 22.68359,13.65234 h -10.78125 v -4.57813 h 11.71875 v -15.40625 l -2.74609,-2.74218 h -3.75391 v 3.83593 h -17.11718 v -3.83593 h -6.54297 v 15.40625 l 2.74219,2.74609 h 9.01953 v 4.57813 h -13.59375 v 2.78906 l 2.76562,2.76562 h 31.0625 v -2.79297 l -2.76562,-2.76171 z m 0,0"
     id="path11" />
  <path
     fill-rule="nonzero"
     fill="#ccdb28"
     fill-opacity="1"
     d="m 69.890622,-2e-6 h 17.46875 v 13.60938 h -17.46875 z m 0,0"
     id="path12" />
  <path
     fill-rule="nonzero"
     fill="#77bd44"
     fill-opacity="1"
     d="m 87.359372,13.609378 h 17.480468 v 25.33593 H 87.359372 Z m 0,0"
     id="path13" />
  <path
     fill-rule="nonzero"
     fill="#55b648"
     fill-opacity="1"
     d="M 104.83984,13.609378 87.363282,-2e-6 v 13.60938 z m 0,0"
     id="path14" />
  <path
     fill-rule="nonzero"
     fill="#f19e27"
     fill-opacity="1"
     d="m 17.472652,19.406248 h 17.46875 v 13.60938 h -17.46875 z m 0,0"
     id="path15" />
  <path
     fill-rule="nonzero"
     fill="#ccdb28"
     fill-opacity="1"
     d="m 69.890622,38.941408 h 17.46875 v 13.61328 h -17.46875 z m 0,0"
     id="path16" />
  <path
     fill-rule="nonzero"
     fill="#55b648"
     fill-opacity="1"
     d="m 87.359372,38.941408 h 17.480468 v 13.61328 H 87.359372 Z m 0,0"
     id="path17" />
  <path
     fill-rule="nonzero"
     fill="#f6811f"
     fill-opacity="1"
     d="m 17.472652,38.941408 h 34.94532 v 13.61328 h -34.94532 z m 0,0"
     id="path18" />
  <path
     fill-rule="nonzero"
     fill="#f6811f"
     fill-opacity="1"
     d="m 2e-6,-2e-6 h 34.94531 v 13.60938 H 2e-6 Z m 0,0"
     id="path19" />
  <path
     fill-rule="nonzero"
     fill="#f19e27"
     fill-opacity="1"
     d="m 52.417972,-2e-6 v 13.60938 h -17.47266 v 5.79687 h 17.47266 z m 0,0"
     id="path20" />
  <path
     fill-rule="nonzero"
     fill="#f16223"
     fill-opacity="1"
     d="m 34.945312,19.406248 h 17.47266 v 13.60938 h -17.47266 z m 0,0"
     id="path21" />
  <path
     fill-rule="nonzero"
     fill="#f16223"
     fill-opacity="1"
     d="m 34.945312,-2e-6 v 13.60938 h 17.47266 z m 0,0"
     id="path22" />
  <path
     fill-rule="nonzero"
     fill="#77bd44"
     fill-opacity="1"
     d="m 52.417972,-2e-6 h 17.46875 v 38.94531 h -17.46875 z m 0,0"
     id="path23" />
  <path
     fill-rule="nonzero"
     fill="#55b648"
     fill-opacity="1"
     d="m 52.417972,-2e-6 h 17.46875 v 13.60938 h -17.46875 z m 0,0"
     id="path24" />
  <path
     fill-rule="nonzero"
     fill="#55b648"
     fill-opacity="1"
     d="m 52.417972,38.945308 17.46875,13.60938 v -13.60938 z m 0,0"
     id="path25" />
  <path
     fill-rule="nonzero"
     fill="#f19e27"
     fill-opacity="1"
     d="m 2e-6,33.015628 h 17.47265 v 5.92968 H 2e-6 Z m 0,0"
     id="path26" />
  <path
     fill-rule="nonzero"
     fill="#e8621f"
     fill-opacity="1"
     d="m 2e-6,19.406248 h 17.47265 v 13.60938 H 2e-6 Z m 0,0"
     id="path27" />
  <path
     fill-rule="nonzero"
     fill="#e8621f"
     fill-opacity="1"
     d="M 17.472652,38.945308 H 2e-6 l 17.47265,13.60938 z m 0,0"
     id="path28" />
  <path
     fill-rule="nonzero"
     fill="#6b60ab"
     fill-opacity="1"
     d="m 17.472652,71.960938 h 17.46875 v 13.60937 h -17.46875 z m 0,0"
     id="path29" />
  <path
     fill-rule="nonzero"
     fill="#a77cb6"
     fill-opacity="1"
     d="m 17.472652,91.499998 h 34.94532 v 13.765632 h -34.94532 z m 0,0"
     id="path30" />
  <path
     fill-rule="nonzero"
     fill="#a77cb6"
     fill-opacity="1"
     d="m 2e-6,52.554688 h 34.94531 v 13.60937 H 2e-6 Z m 0,0"
     id="path31" />
  <path
     fill-rule="nonzero"
     fill="#a77cb6"
     fill-opacity="1"
     d="m 34.945312,66.164058 h 17.47266 v 5.79688 h -17.47266 z m 0,0"
     id="path32" />
  <path
     fill-rule="nonzero"
     fill="#58469b"
     fill-opacity="1"
     d="m 34.945312,71.960938 h 17.47266 v 13.60937 h -17.47266 z m 0,0"
     id="path33" />
  <path
     fill-rule="nonzero"
     fill="#804f9f"
     fill-opacity="1"
     d="m 34.945312,52.554688 v 13.60937 h 17.47266 z m 0,0"
     id="path34" />
  <path
     fill-rule="nonzero"
     fill="#a77cb6"
     fill-opacity="1"
     d="m 2e-6,85.570308 h 17.47265 v 5.9375 H 2e-6 Z m 0,0"
     id="path35" />
  <path
     fill-rule="nonzero"
     fill="#58469b"
     fill-opacity="1"
     d="m 2e-6,71.960938 h 17.47265 v 13.60937 H 2e-6 Z m 0,0"
     id="path36" />
  <path
     fill-rule="nonzero"
     fill="#804f9f"
     fill-opacity="1"
     d="M 17.472652,91.507808 H 2e-6 l 17.47265,13.753912 z m 0,0"
     id="path37" />
  <path
     fill-rule="nonzero"
     fill="#de9dc5"
     fill-opacity="1"
     d="m 69.890622,71.960938 h 17.46875 v 13.60937 h -17.46875 z m 0,0"
     id="path38" />
  <path
     fill-rule="nonzero"
     fill="#de9dc5"
     fill-opacity="1"
     d="m 69.890622,91.499998 h 17.46875 v 13.765632 h -17.46875 z m 0,0"
     id="path39" />
  <path
     fill-rule="nonzero"
     fill="#eea7b9"
     fill-opacity="1"
     d="m 69.890622,52.554688 v 13.60937 h 34.953128 v -13.60937 z m 0,0"
     id="path40" />
  <path
     fill-rule="nonzero"
     fill="#e53d66"
     fill-opacity="1"
     d="m 52.417972,85.570308 h 17.46875 v 5.92969 h -17.46875 z m 0,0"
     id="path41" />
  <path
     fill-rule="nonzero"
     fill="#e65071"
     fill-opacity="1"
     d="m 52.417972,66.164058 h 17.46875 v 5.79688 h -17.46875 z m 0,0"
     id="path42" />
  <path
     fill-rule="nonzero"
     fill="#dc3c70"
     fill-opacity="1"
     d="m 52.417972,71.960938 h 17.46875 v 13.60937 h -17.46875 z m 0,0"
     id="path43" />
  <path
     fill-rule="nonzero"
     fill="#dc3c70"
     fill-opacity="1"
     d="m 52.417972,91.499998 h 17.46875 v 13.765632 h -17.46875 z m 0,0"
     id="path44" />
  <path
     fill-rule="nonzero"
     fill="#e53d66"
     fill-opacity="1"
     d="m 52.417972,66.164058 h 17.46875 v -13.60937 z m 0,0"
     id="path45" />
  <path
     fill-rule="nonzero"
     fill="#e53d66"
     fill-opacity="1"
     d="m 87.359372,85.570308 h 17.480468 v 5.92969 H 87.359372 Z m 0,0"
     id="path46" />
  <path
     fill-rule="nonzero"
     fill="#dc3c70"
     fill-opacity="1"
     d="m 87.359372,71.960938 h 17.480468 v 13.60937 H 87.359372 Z m 0,0"
     id="path47" />
  <path
     fill-rule="nonzero"
     fill="#dc3c70"
     fill-opacity="1"
     d="M 87.363282,105.26563 104.83984,91.499998 H 87.363282 Z m 0,0"
     id="path48" />
</svg>
