<?xml version="1.0" encoding="UTF-8" standalone="no"?>
<svg
   width="104.93359"
   height="103.36719"
   viewBox="0 0 104.93359 103.36719"
   version="1.1"
   id="svg42"
   xmlns="http://www.w3.org/2000/svg"
   xmlns:svg="http://www.w3.org/2000/svg">
  <defs
     id="defs5">
    <clipPath
       id="clip-0">
      <path
         clip-rule="nonzero"
         d="m 445,313 h 36 v 12 h -36 z m 0,0"
         id="path1" />
    </clipPath>
    <clipPath
       id="clip-1">
      <path
         clip-rule="nonzero"
         d="m 427,313 h 19 v 12 h -19 z m 0,0"
         id="path2" />
    </clipPath>
    <clipPath
       id="clip-2">
      <path
         clip-rule="nonzero"
         d="m 497,313 h 19 v 12 h -19 z m 0,0"
         id="path3" />
    </clipPath>
    <clipPath
       id="clip-3">
      <path
         clip-rule="nonzero"
         d="m 480,313 h 18 v 12 h -18 z m 0,0"
         id="path4" />
    </clipPath>
    <clipPath
       id="clip-4">
      <path
         clip-rule="nonzero"
         d="m 515,313 h 18 v 12 h -18 z m 0,0"
         id="path5" />
    </clipPath>
  </defs>
  <path
     fill-rule="nonzero"
     fill="#ccdb28"
     fill-opacity="1"
     d="m 69.949215,-2e-6 h 17.48828 v 13.6211 h -17.48828 z m 0,0"
     id="path6" />
  <path
     fill-rule="nonzero"
     fill="#77bd44"
     fill-opacity="1"
     d="m 87.437495,13.621098 h 17.496095 v 25.35546 H 87.437495 Z m 0,0"
     id="path7" />
  <path
     fill-rule="nonzero"
     fill="#55b648"
     fill-opacity="1"
     d="M 104.93359,13.621098 87.437495,-2e-6 v 13.6211 z m 0,0"
     id="path8" />
  <path
     fill-rule="nonzero"
     fill="#f19e27"
     fill-opacity="1"
     d="m 17.488285,19.421878 h 17.48828 v 13.625 h -17.48828 z m 0,0"
     id="path9" />
  <path
     fill-rule="nonzero"
     fill="#ccdb28"
     fill-opacity="1"
     d="m 69.949215,38.976558 h 17.48828 v 13.625 h -17.48828 z m 0,0"
     id="path10" />
  <path
     fill-rule="nonzero"
     fill="#55b648"
     fill-opacity="1"
     d="m 87.437495,38.976558 h 17.496095 v 13.625 H 87.437495 Z m 0,0"
     id="path11" />
  <path
     fill-rule="nonzero"
     fill="#f6811f"
     fill-opacity="1"
     d="m 17.488285,38.976558 h 34.97656 v 13.625 h -34.97656 z m 0,0"
     id="path12" />
  <path
     fill-rule="nonzero"
     fill="#f6811f"
     fill-opacity="1"
     d="m -5e-6,-2e-6 h 34.97657 v 13.6211 H -5e-6 Z m 0,0"
     id="path13" />
  <path
     fill-rule="nonzero"
     fill="#f19e27"
     fill-opacity="1"
     d="m 52.464845,-2e-6 v 13.6211 h -17.48828 v 5.80078 h 17.48828 z m 0,0"
     id="path14" />
  <path
     fill-rule="nonzero"
     fill="#f16223"
     fill-opacity="1"
     d="m 34.976565,19.421878 h 17.48828 v 13.625 h -17.48828 z m 0,0"
     id="path15" />
  <path
     fill-rule="nonzero"
     fill="#f16223"
     fill-opacity="1"
     d="m 34.976565,-2e-6 v 13.6211 h 17.48828 z m 0,0"
     id="path16" />
  <path
     fill-rule="nonzero"
     fill="#77bd44"
     fill-opacity="1"
     d="m 52.464845,-2e-6 h 17.48437 v 38.97656 h -17.48437 z m 0,0"
     id="path17" />
  <path
     fill-rule="nonzero"
     fill="#55b648"
     fill-opacity="1"
     d="m 52.464845,-2e-6 h 17.48437 v 13.6211 h -17.48437 z m 0,0"
     id="path18" />
  <path
     fill-rule="nonzero"
     fill="#55b648"
     fill-opacity="1"
     d="m 52.464845,38.976558 17.48437,13.625 v -13.625 z m 0,0"
     id="path19" />
  <path
     fill-rule="nonzero"
     fill="#f19e27"
     fill-opacity="1"
     d="m -5e-6,33.046878 h 17.48829 v 5.92968 H -5e-6 Z m 0,0"
     id="path20" />
  <path
     fill-rule="nonzero"
     fill="#e8621f"
     fill-opacity="1"
     d="m -5e-6,19.421878 h 17.48829 v 13.625 H -5e-6 Z m 0,0"
     id="path21" />
  <path
     fill-rule="nonzero"
     fill="#e8621f"
     fill-opacity="1"
     d="M 17.488285,38.976558 H -5e-6 l 17.48829,13.625 z m 0,0"
     id="path22" />
  <path
     fill-rule="nonzero"
     fill="#6b60ab"
     fill-opacity="1"
     d="m 17.488285,72.023438 h 17.48828 v 13.62109 h -17.48828 z m 0,0"
     id="path23" />
  <g
     clip-path="url(#clip-0)"
     id="g24"
     transform="translate(-427.67187,-221.63281)">
    <path
       fill-rule="nonzero"
       fill="#a77cb6"
       fill-opacity="1"
       d="m 445.16016,313.21094 h 34.97656 v 13.77343 h -34.97656 z m 0,0"
       id="path24" />
  </g>
  <path
     fill-rule="nonzero"
     fill="#a77cb6"
     fill-opacity="1"
     d="m -5e-6,52.597658 h 34.97657 v 13.625 H -5e-6 Z m 0,0"
     id="path25" />
  <path
     fill-rule="nonzero"
     fill="#a77cb6"
     fill-opacity="1"
     d="m 34.976565,66.222658 h 17.48828 v 5.80078 h -17.48828 z m 0,0"
     id="path26" />
  <path
     fill-rule="nonzero"
     fill="#58469b"
     fill-opacity="1"
     d="m 34.976565,72.023438 h 17.48828 v 13.62109 h -17.48828 z m 0,0"
     id="path27" />
  <path
     fill-rule="nonzero"
     fill="#804f9f"
     fill-opacity="1"
     d="m 34.976565,52.597658 v 13.625 h 17.48828 z m 0,0"
     id="path28" />
  <path
     fill-rule="nonzero"
     fill="#a77cb6"
     fill-opacity="1"
     d="m -5e-6,85.644528 h 17.48829 v 5.94141 H -5e-6 Z m 0,0"
     id="path29" />
  <path
     fill-rule="nonzero"
     fill="#58469b"
     fill-opacity="1"
     d="m -5e-6,72.023438 h 17.48829 v 13.62109 H -5e-6 Z m 0,0"
     id="path30" />
  <g
     clip-path="url(#clip-1)"
     id="g31"
     transform="translate(-427.67187,-221.63281)">
    <path
       fill-rule="nonzero"
       fill="#804f9f"
       fill-opacity="1"
       d="m 445.16016,313.21875 h -17.48829 l 17.48829,13.76953 z m 0,0"
       id="path31" />
  </g>
  <path
     fill-rule="nonzero"
     fill="#de9dc5"
     fill-opacity="1"
     d="m 69.949215,72.023438 h 17.48828 v 13.62109 h -17.48828 z m 0,0"
     id="path32" />
  <g
     clip-path="url(#clip-2)"
     id="g33"
     transform="translate(-427.67187,-221.63281)">
    <path
       fill-rule="nonzero"
       fill="#de9dc5"
       fill-opacity="1"
       d="m 497.62109,313.21094 h 17.48828 v 13.77343 h -17.48828 z m 0,0"
       id="path33" />
  </g>
  <path
     fill-rule="nonzero"
     fill="#eea7b9"
     fill-opacity="1"
     d="m 69.953125,52.597658 v 13.625 h 34.980465 v -13.625 z m 0,0"
     id="path34" />
  <path
     fill-rule="nonzero"
     fill="#e53d66"
     fill-opacity="1"
     d="m 52.464845,85.644528 h 17.48437 v 5.9336 h -17.48437 z m 0,0"
     id="path35" />
  <path
     fill-rule="nonzero"
     fill="#e65071"
     fill-opacity="1"
     d="m 52.464845,66.222658 h 17.48437 v 5.80078 h -17.48437 z m 0,0"
     id="path36" />
  <path
     fill-rule="nonzero"
     fill="#dc3c70"
     fill-opacity="1"
     d="m 52.464845,72.023438 h 17.48437 v 13.62109 h -17.48437 z m 0,0"
     id="path37" />
  <g
     clip-path="url(#clip-3)"
     id="g38"
     transform="translate(-427.67187,-221.63281)">
    <path
       fill-rule="nonzero"
       fill="#dc3c70"
       fill-opacity="1"
       d="m 480.13672,313.21094 h 17.48437 v 13.77343 h -17.48437 z m 0,0"
       id="path38" />
  </g>
  <path
     fill-rule="nonzero"
     fill="#e53d66"
     fill-opacity="1"
     d="m 52.464845,66.222658 h 17.48437 v -13.625 z m 0,0"
     id="path39" />
  <path
     fill-rule="nonzero"
     fill="#e53d66"
     fill-opacity="1"
     d="m 87.437495,85.644528 h 17.496095 v 5.9336 H 87.437495 Z m 0,0"
     id="path40" />
  <path
     fill-rule="nonzero"
     fill="#dc3c70"
     fill-opacity="1"
     d="m 87.437495,72.023438 h 17.496095 v 13.62109 H 87.437495 Z m 0,0"
     id="path41" />
  <g
     clip-path="url(#clip-4)"
     id="g42"
     transform="translate(-427.67187,-221.63281)">
    <path
       fill-rule="nonzero"
       fill="#dc3c70"
       fill-opacity="1"
       d="m 515.10937,326.98828 17.4961,-13.77734 h -17.4961 z m 0,0"
       id="path42" />
  </g>
</svg>
