<?xml version="1.0" encoding="UTF-8" standalone="no"?>
<!-- Created with Inkscape (http://www.inkscape.org/) -->

<svg
   width="1920"
   height="1080"
   viewBox="0 0 507.99999 285.75"
   version="1.1"
   id="svg1"
   xml:space="preserve"
   inkscape:version="1.4.4 (dcaf3e7d9e, 2026-05-05)"
   sodipodi:docname="template.svg"
   xmlns:inkscape="http://www.inkscape.org/namespaces/inkscape"
   xmlns:sodipodi="http://sodipodi.sourceforge.net/DTD/sodipodi-0.dtd"
   xmlns:xlink="http://www.w3.org/1999/xlink"
   xmlns="http://www.w3.org/2000/svg"
   xmlns:svg="http://www.w3.org/2000/svg"><sodipodi:namedview
     id="namedview1"
     pagecolor="#ffffff"
     bordercolor="#000000"
     borderopacity="0.25"
     inkscape:showpageshadow="2"
     inkscape:pageopacity="0.0"
     inkscape:pagecheckerboard="0"
     inkscape:deskcolor="#d1d1d1"
     inkscape:document-units="px"
     inkscape:zoom="0.46891518"
     inkscape:cx="1112.1414"
     inkscape:cy="511.81965"
     inkscape:window-width="1912"
     inkscape:window-height="980"
     inkscape:window-x="0"
     inkscape:window-y="0"
     inkscape:window-maximized="1"
     inkscape:current-layer="layer1" /><defs
     id="defs1"><clipPath
       clipPathUnits="userSpaceOnUse"
       id="clipPath3"><rect
         style="opacity:1;fill:#ffffff;fill-opacity:1;stroke-width:0.536773;stroke-linecap:round"
         id="rect4"
         width="105.83334"
         height="105.83334"
         x="74.083336"
         y="132.29167"
         inkscape:label="bg_left" /></clipPath><clipPath
       clipPathUnits="userSpaceOnUse"
       id="clipPath5"><rect
         style="opacity:0.9;fill:#ffffff;fill-opacity:1;stroke-width:1.14775;stroke-linecap:round"
         id="rect6"
         width="132.29167"
         height="132.29167"
         x="314.85416"
         y="119.0625" /></clipPath><clipPath
       clipPathUnits="userSpaceOnUse"
       id="clipPath9"><rect
         style="opacity:0.9;fill:#ffffff;fill-opacity:1;stroke-width:1.14775;stroke-linecap:round"
         id="rect9"
         width="132.29167"
         height="132.29167"
         x="60.854168"
         y="118.38805" /></clipPath><filter
       inkscape:collect="always"
       style="color-interpolation-filters:sRGB"
       id="filter1"
       x="-0.00459375"
       y="-0.0081666669"
       width="1.0091875"
       height="1.0163333"><feGaussianBlur
         inkscape:collect="always"
         stdDeviation="0.98247236"
         id="feGaussianBlur1" /></filter></defs><g
     inkscape:label="background"
     inkscape:groupmode="layer"
     id="layer1"><image
       width="513.29169"
       height="288.72656"
       preserveAspectRatio="none"
       style="image-rendering:optimizeQuality;filter:url(#filter1)"
       xlink:href="file:///var/tmp/ssl-streaming-package/services/obs_live_data/youtube_thumbnails/incheon_event_venue.jpg"
       id="image1"
       x="-2.6458333"
       y="-2.6458333"
       sodipodi:absref="/var/tmp/ssl-streaming-package/services/obs_live_data/youtube_thumbnails/incheon_event_venue.jpg" /><text
       xml:space="preserve"
       style="font-style:normal;font-variant:normal;font-weight:bold;font-stretch:normal;font-size:22.5778px;font-family:'Seravek Basic';-inkscape-font-specification:'Seravek Basic, Bold';font-variant-ligatures:normal;font-variant-caps:normal;font-variant-numeric:normal;font-variant-east-asian:normal;writing-mode:lr-tb;direction:ltr;fill:#ffffff;stroke-width:20;stroke-linecap:round"
       x="107.55423"
       y="106.9076"
       id="text1"><tspan
         sodipodi:role="line"
         id="tspan1"
         style="font-style:normal;font-variant:normal;font-weight:bold;font-stretch:normal;font-size:22.5778px;font-family:'Seravek Basic';-inkscape-font-specification:'Seravek Basic, Bold';font-variant-ligatures:normal;font-variant-caps:normal;font-variant-numeric:normal;font-variant-east-asian:normal;stroke-width:20"
         x="107.55423"
         y="106.9076">Small Size League </tspan></text><text
       xml:space="preserve"
       style="font-style:normal;font-variant:normal;font-weight:bold;font-stretch:normal;font-size:16.9333px;font-family:'Seravek Basic';-inkscape-font-specification:'Seravek Basic, Bold';font-variant-ligatures:normal;font-variant-caps:normal;font-variant-numeric:normal;font-variant-east-asian:normal;writing-mode:lr-tb;direction:ltr;fill:#ffffff;stroke-width:20;stroke-linecap:round"
       x="179.24815"
       y="262.15097"
       id="text1-3"><tspan
         sodipodi:role="line"
         id="tspan1-5"
         style="font-style:normal;font-variant:normal;font-weight:bold;font-stretch:normal;font-size:16.9333px;font-family:'Seravek Basic';-inkscape-font-specification:'Seravek Basic, Bold';font-variant-ligatures:normal;font-variant-caps:normal;font-variant-numeric:normal;font-variant-east-asian:normal;stroke-width:20"
         x="179.24815"
         y="262.15097">Day 1 - Group Phase</tspan></text><text
       xml:space="preserve"
       style="font-style:normal;font-variant:normal;font-weight:bold;font-stretch:normal;font-size:52.9167px;font-family:'Seravek Basic';-inkscape-font-specification:'Seravek Basic, Bold';font-variant-ligatures:normal;font-variant-caps:normal;font-variant-numeric:normal;font-variant-east-asian:normal;writing-mode:lr-tb;direction:ltr;fill:#ffffff;stroke-width:20;stroke-linecap:round"
       x="223.94337"
       y="202.82954"
       id="text2"><tspan
         sodipodi:role="line"
         id="tspan2"
         style="font-style:normal;font-variant:normal;font-weight:bold;font-stretch:normal;font-size:52.9167px;font-family:'Seravek Basic';-inkscape-font-specification:'Seravek Basic, Bold';font-variant-ligatures:normal;font-variant-caps:normal;font-variant-numeric:normal;font-variant-east-asian:normal;stroke-width:20"
         x="223.94337"
         y="202.82954">VS</tspan></text></g><g
     inkscape:groupmode="layer"
     id="layer2"
     inkscape:label="robocup_logos"><g
       id="g2"
       transform="matrix(0.89085236,0,0,0.89085236,108.22036,21.664235)"
       inkscape:label="incheon_robocup"><path
         fill-rule="nonzero"
         fill="#000000"
         fill-opacity="1"
         d="m 20.746089,42.363282 c 0,-1.8086 -0.70703,-3.14063 -2.10937,-4.00781 -1.40625,-0.86329 -3.375,-1.29297 -5.90625,-1.29297 h -2.83203 v 11.27734 h 2.41406 c 2.64844,0 4.72266,-0.51953 6.21094,-1.56641 1.48828,-1.04687 2.23437,-2.51171 2.23437,-4.40234 z m 9.52344,-0.17969 c 0,2.69531 -0.75,5.04688 -2.26172,7.05469 -1.50781,2.01172 -3.60547,3.53906 -6.30078,4.58203 l 13.20313,15.80078 h -12.17969 l -11.03516,-13.92969 h -1.80859 v 13.92969 H -1e-6 v -40.16016 h 12.78516 c 2.49218,0 4.80468,0.25782 6.9375,0.78125 2.1289,0.52735 3.97656,1.3086 5.54297,2.35547 1.5664,1.04297 2.79296,2.36328 3.67968,3.94922 0.88282,1.58985 1.33203,3.46485 1.33203,5.63672 z m 0,0"
         id="path1-9"
         style="fill:#ffffff;fill-opacity:1" /><path
         fill-rule="nonzero"
         fill="#000000"
         fill-opacity="1"
         d="m 58.007809,54.843752 c 0,-1.04297 -0.10156,-2.05469 -0.30078,-3.04688 -0.20312,-0.98047 -0.53125,-1.87109 -0.99219,-2.64844 -0.46484,-0.78515 -1.08593,-1.41015 -1.87109,-1.87109 -0.78516,-0.46484 -1.75781,-0.69531 -2.92187,-0.69531 -1.16407,0 -2.14454,0.23047 -2.92188,0.69531 -0.78906,0.46094 -1.41016,1.08594 -1.875,1.87109 -0.46094,0.78516 -0.79687,1.66797 -0.99219,2.64844 -0.20312,0.98438 -0.30078,2.00391 -0.30078,3.04688 0,1.04687 0.10156,2.0664 0.30078,3.04687 0.20313,0.98438 0.53125,1.8711 0.99219,2.65235 0.46484,0.78515 1.08594,1.41015 1.875,1.87109 0.78125,0.46484 1.75781,0.69531 2.92188,0.69531 1.16406,0 2.14062,-0.23047 2.92187,-0.69531 0.78516,-0.46094 1.40625,-1.08594 1.87109,-1.87109 0.46094,-0.78516 0.78907,-1.66797 0.99219,-2.65235 0.19922,-0.98047 0.30078,-2 0.30078,-3.04687 m 9.64844,0 c 0,2.17187 -0.34375,4.1914 -1.02344,6.0625 -0.68359,1.87109 -1.6875,3.5 -3.01172,4.88281 -1.32812,1.38672 -2.97265,2.46875 -4.94531,3.25781 -1.97265,0.78516 -4.22265,1.17578 -6.7539,1.17578 -2.53516,0 -4.78516,-0.39062 -6.75782,-1.17578 -1.97265,-0.78906 -3.61718,-1.87109 -4.94531,-3.25781 -1.32812,-1.38281 -2.32812,-3.01172 -3.01172,-4.88281 -0.68359,-1.8711 -1.02344,-3.89063 -1.02344,-6.0625 0,-2.16797 0.33985,-4.1875 1.02344,-6.0586 0.6836,-1.87109 1.6875,-3.5 3.01172,-4.88281 1.32813,-1.38672 2.97266,-2.47266 4.94531,-3.25781 1.96875,-0.78516 4.22266,-1.17578 6.75782,-1.17578 2.53125,0 4.78125,0.39062 6.7539,1.17578 1.96485,0.78515 3.61719,1.87109 4.94531,3.25781 1.32813,1.38281 2.32813,3.01172 3.01172,4.88281 0.6836,1.8711 1.02344,3.89063 1.02344,6.0586"
         id="path2-2"
         style="fill:#ffffff;fill-opacity:1" /><path
         fill-rule="nonzero"
         fill="#000000"
         fill-opacity="1"
         d="m 87.136719,46.824222 c -1.80859,0 -3.39844,0.54296 -4.76563,1.6289 v 13.98828 c 0.44141,0.20313 0.96485,0.36328 1.56641,0.48047 0.60547,0.1211 1.22656,0.1836 1.87109,0.1836 1.24219,0 2.32813,-0.22266 3.25782,-0.66407 0.91797,-0.4375 1.66406,-1.04297 2.23047,-1.80859 0.5664,-0.76172 0.98437,-1.64844 1.26562,-2.64844 0.28516,-1.00781 0.42578,-2.09375 0.42578,-3.25781 0,-2.41406 -0.47656,-4.32813 -1.41797,-5.76172 -0.94531,-1.42187 -2.42578,-2.14062 -4.43359,-2.14062 z m -14.41406,-19.77735 h 9.64843 v 15.31641 c 0.84375,-0.83985 1.85938,-1.53906 3.04688,-2.07813 1.1875,-0.54297 2.6875,-0.8164 4.49609,-0.8164 1.92578,0 3.67969,0.375 5.24219,1.11328 1.56641,0.75 2.90625,1.79297 4.00781,3.14062 1.109381,1.34375 1.964851,2.94532 2.562501,4.79297 0.60547,1.84766 0.90625,3.875 0.90625,6.08594 0,2.21094 -0.35156,4.14844 -1.05859,6.0625 -0.70703,1.91016 -1.757811,3.56641 -3.164061,4.97266 -1.41016,1.40625 -3.17969,2.51953 -5.3086,3.34765 -2.13281,0.82422 -4.625,1.23828 -7.48047,1.23828 -2.41406,0 -4.71484,-0.26172 -6.90234,-0.78906 -2.19141,-0.51953 -4.1875,-1.24219 -5.99609,-2.16797 z m 0,0"
         id="path3-0"
         style="fill:#ffffff;fill-opacity:1" /><path
         fill-rule="nonzero"
         fill="#000000"
         fill-opacity="1"
         d="m 127.89844,54.843752 c 0,-1.04297 -0.10156,-2.05469 -0.30078,-3.04688 -0.20313,-0.98047 -0.53125,-1.87109 -0.99219,-2.64844 -0.46484,-0.78515 -1.08594,-1.41015 -1.87109,-1.87109 -0.78516,-0.46484 -1.75782,-0.69531 -2.92188,-0.69531 -1.16797,0 -2.14453,0.23047 -2.92187,0.69531 -0.78907,0.46094 -1.41016,1.08594 -1.875,1.87109 -0.46094,0.78516 -0.79688,1.66797 -0.99219,2.64844 -0.20313,0.98438 -0.30078,2.00391 -0.30078,3.04688 0,1.04687 0.10156,2.0664 0.30078,3.04687 0.20312,0.98438 0.53125,1.8711 0.99219,2.65235 0.46484,0.78515 1.08593,1.41015 1.875,1.87109 0.78515,0.46484 1.7539,0.69531 2.92187,0.69531 1.16406,0 2.14063,-0.23047 2.92188,-0.69531 0.78515,-0.46094 1.40625,-1.08594 1.87109,-1.87109 0.46094,-0.78516 0.78906,-1.66797 0.99219,-2.65235 0.19922,-0.98047 0.30078,-2 0.30078,-3.04687 m 9.64844,0 c 0,2.17187 -0.34375,4.1914 -1.02344,6.0625 -0.6836,1.87109 -1.6875,3.5 -3.01172,4.88281 -1.32813,1.38672 -2.97266,2.46875 -4.94531,3.25781 -1.97266,0.78516 -4.22266,1.17578 -6.75391,1.17578 -2.53516,0 -4.78516,-0.39062 -6.75781,-1.17578 -1.97266,-0.78906 -3.61719,-1.87109 -4.94531,-3.25781 -1.32813,-1.38281 -2.32813,-3.01172 -3.01172,-4.88281 -0.6836,-1.8711 -1.02344,-3.89063 -1.02344,-6.0625 0,-2.16797 0.33984,-4.1875 1.02344,-6.0586 0.68359,-1.87109 1.6875,-3.5 3.01172,-4.88281 1.32812,-1.38672 2.97265,-2.47266 4.94531,-3.25781 1.96875,-0.78516 4.22265,-1.17578 6.75781,-1.17578 2.53125,0 4.78125,0.39062 6.75391,1.17578 1.96484,0.78515 3.61718,1.87109 4.94531,3.25781 1.32812,1.38281 2.32812,3.01172 3.01172,4.88281 0.68359,1.8711 1.02344,3.89063 1.02344,6.0586"
         id="path4-2"
         style="fill:#ffffff;fill-opacity:1" /><path
         fill-rule="nonzero"
         fill="#000000"
         fill-opacity="1"
         d="m 162.75391,28.734372 c 2.09375,0 4.1875,0.19922 6.30468,0.60156 2.10547,0.39844 3.92579,0.97657 5.45313,1.73438 l -1.44531,7.25 c -1.20703,-0.47656 -2.58594,-0.89063 -4.13282,-1.23438 -1.55078,-0.33984 -3.08593,-0.51562 -4.61328,-0.51562 -4.09765,0 -7.33593,1.06641 -9.70703,3.21094 -2.375,2.14062 -3.55469,5.39062 -3.55469,9.75 0,4.35937 1.1875,7.61328 3.55469,9.7539 2.375,2.14063 5.60938,3.20703 9.70703,3.20703 1.52735,0 3.0625,-0.16796 4.61328,-0.51171 1.54688,-0.33985 2.92188,-0.75391 4.13282,-1.23829 l 1.44531,7.25 c -1.52734,0.75782 -3.34766,1.33985 -5.45313,1.73829 -2.10937,0.39453 -4.21093,0.59765 -6.30468,0.59765 -3.53907,0 -6.65235,-0.51953 -9.35157,-1.5664 -2.69531,-1.04297 -4.94531,-2.49219 -6.7539,-4.33985 -1.8086,-1.85156 -3.17578,-4.04297 -4.09766,-6.57422 -0.92578,-2.53515 -1.38672,-5.30859 -1.38672,-8.32031 0,-3.01562 0.46485,-5.78906 1.38672,-8.32031 0.92578,-2.53516 2.28906,-4.72656 4.09766,-6.57422 1.80859,-1.85156 4.05859,-3.29688 6.7539,-4.34375 2.69141,-1.04297 5.8125,-1.56641 9.35157,-1.56641 z m 0,0"
         id="path5-3"
         style="fill:#ffffff;fill-opacity:1" /><path
         fill-rule="nonzero"
         fill="#000000"
         fill-opacity="1"
         d="m 208.21875,40.070312 v 29.54687 h -9.28906 v -3.86328 c -1.1211,1.69141 -2.39063,2.85547 -3.79688,3.5 -1.40625,0.64453 -2.89453,0.96875 -4.46093,0.96875 -1.97266,0 -3.62891,-0.41406 -4.97266,-1.23828 -1.34766,-0.82812 -2.42969,-1.92187 -3.25781,-3.28515 -0.82422,-1.36719 -1.41797,-2.94532 -1.77735,-4.73047 -0.36328,-1.78907 -0.54297,-3.66797 -0.54297,-5.63672 v -15.25781 h 9.64844 v 15.4375 c 0,2.45312 0.33985,4.25 1.02344,5.39843 0.68359,1.14844 1.80859,1.71875 3.375,1.71875 1.00391,0 1.875,-0.21875 2.62109,-0.66015 0.7461,-0.44141 1.33594,-0.98438 1.78125,-1.62891 v -20.26172 h 9.64844 z m 0,0"
         id="path6-7"
         style="fill:#ffffff;fill-opacity:1" /><path
         fill-rule="nonzero"
         fill="#000000"
         fill-opacity="1"
         d="m 230.05078,46.886722 c -1.08594,0 -2.03125,0.16796 -2.83203,0.51171 -0.80469,0.34766 -1.50781,0.85547 -2.10937,1.53907 v 13.6914 c 0.4414,0.16016 0.94531,0.28516 1.51171,0.36328 0.5625,0.0781 1.20313,0.11719 1.92579,0.11719 2.53125,0 4.35937,-0.77344 5.48828,-2.32422 1.125,-1.54687 1.6914,-3.6289 1.6914,-6.23828 0,-2.17187 -0.45312,-3.99219 -1.35547,-5.45703 -0.90625,-1.46875 -2.34375,-2.19922 -4.3164,-2.19922 z m -14.59375,-6.81641 h 9.22266 v 3.49609 c 1.92578,-2.73437 4.88281,-4.09765 8.86328,-4.09765 1.65234,0 3.19531,0.35156 4.64062,1.05859 1.44922,0.70703 2.70313,1.70703 3.77344,3.01172 1.0586,1.30469 1.89844,2.88281 2.50391,4.73047 0.60156,1.85156 0.90234,3.91797 0.90234,6.21484 0,2.60938 -0.41015,4.89453 -1.23828,6.84375 -0.82422,1.94922 -1.92578,3.58985 -3.31641,4.91406 -1.38671,1.32813 -3.00781,2.32032 -4.85546,2.98438 -1.85157,0.66016 -3.82422,0.99609 -5.91407,0.99609 -1.04687,0 -1.97265,-0.0703 -2.77734,-0.21093 -0.80078,-0.14063 -1.52344,-0.3086 -2.16797,-0.51563 v 12.54688 h -9.65234 v -41.97266 z m 0,0"
         id="path7-5"
         style="fill:#ffffff;fill-opacity:1" /><path
         fill-rule="nonzero"
         fill="#000000"
         fill-opacity="1"
         d="m 130.89453,20.328122 h -2.75781 V 0.363282 h 2.75781 z m 0,0"
         id="path8-9"
         style="fill:#ffffff;fill-opacity:1" /><path
         fill-rule="nonzero"
         fill="#000000"
         fill-opacity="1"
         d="M 148.91406,20.328122 137.73438,4.648432 v 15.67969 h -2.64063 V 0.363282 h 2.64063 l 11.17968,15.67969 V 0.363282 h 2.64063 v 19.96484 z m 0,0"
         id="path9-2"
         style="fill:#ffffff;fill-opacity:1" /><path
         fill-rule="nonzero"
         fill="#000000"
         fill-opacity="1"
         d="m 164.86719,2e-6 c 0.89844,0 1.83594,0.0859 2.82031,0.2539 0.98047,0.17188 1.79688,0.39844 2.46094,0.67578 l -0.44922,2.12891 c -0.67578,-0.23828 -1.40625,-0.43359 -2.18359,-0.58203 -0.78125,-0.14453 -1.55079,-0.22656 -2.3086,-0.22656 -2.49609,0 -4.44922,0.70312 -5.84375,2.09765 -1.39844,1.39844 -2.09765,3.39844 -2.09765,6 0,2.59766 0.69921,4.59375 2.09765,5.9961 1.39453,1.39453 3.34766,2.09765 5.84375,2.09765 0.75781,0 1.53125,-0.0742 2.3086,-0.22656 0.77734,-0.14844 1.50781,-0.34375 2.18359,-0.58203 l 0.44922,2.12891 c -0.66406,0.28515 -1.48047,0.5039 -2.46094,0.67578 -0.97656,0.16797 -1.91406,0.2539 -2.82031,0.2539 -1.63672,0 -3.10156,-0.26172 -4.39063,-0.78125 -1.28906,-0.51953 -2.375,-1.23828 -3.25,-2.16015 -0.88281,-0.92188 -1.55468,-2.00391 -2.02343,-3.26563 -0.46875,-1.26172 -0.70704,-2.64062 -0.70704,-4.13672 0,-1.5 0.23829,-2.8789 0.70704,-4.14062 0.46875,-1.26172 1.14062,-2.34375 2.02343,-3.26563 0.875,-0.92187 1.96094,-1.64062 3.25,-2.16015 1.28907,-0.51953 2.75391,-0.78125 4.39063,-0.78125"
         id="path10-2"
         style="fill:#ffffff;fill-opacity:1" /><path
         fill-rule="nonzero"
         fill="#000000"
         fill-opacity="1"
         d="m 186.12109,20.328122 v -8.96484 h -10.22265 v 8.96484 h -2.76172 V 0.363282 h 2.76172 v 8.66406 h 10.22265 v -8.66406 h 2.76172 v 19.96484 z m 0,0"
         id="path11-8"
         style="fill:#ffffff;fill-opacity:1" /><path
         fill-rule="nonzero"
         fill="#000000"
         fill-opacity="1"
         d="m 192.92969,0.363282 h 11.125 v 2.25 h -8.36719 v 6.38672 h 8.00391 v 2.25 h -8.00391 v 6.83593 h 8.45703 v 2.25 h -11.21484 z m 0,0"
         id="path12-9"
         style="fill:#ffffff;fill-opacity:1" /><path
         fill-rule="nonzero"
         fill="#000000"
         fill-opacity="1"
         d="m 216.16016,18.468752 c 1.14453,0 2.14843,-0.20703 3.03125,-0.625 0.88281,-0.42188 1.60937,-1.00391 2.1875,-1.74219 0.58203,-0.74219 1.01562,-1.60547 1.3164,-2.59766 0.30078,-0.98828 0.44532,-2.03906 0.44532,-3.15625 0,-1.12109 -0.14844,-2.17968 -0.44532,-3.16797 -0.30078,-0.98828 -0.73828,-1.84765 -1.3164,-2.57812 -0.58203,-0.72656 -1.3125,-1.3125 -2.1875,-1.73828 -0.875,-0.42969 -1.88672,-0.64453 -3.03125,-0.64453 -1.14063,0 -2.14844,0.21484 -3.02735,0.64453 -0.88281,0.42578 -1.61328,1.01172 -2.1875,1.73828 -0.58203,0.73047 -1.01953,1.58984 -1.32031,2.57812 -0.29687,0.98829 -0.44531,2.04688 -0.44531,3.16797 0,1.11719 0.14844,2.16797 0.44531,3.15625 0.30078,0.99219 0.74219,1.85547 1.32031,2.59766 0.58203,0.73828 1.30469,1.31641 2.1875,1.74219 0.875,0.41797 1.88672,0.625 3.02735,0.625 m 0,2.22265 c -1.5586,0 -2.94922,-0.28515 -4.16407,-0.84375 -1.21484,-0.55859 -2.23828,-1.3125 -3.05859,-2.25 -0.82031,-0.9375 -1.44141,-2.03906 -1.87109,-3.29297 -0.42969,-1.26171 -0.64453,-2.57812 -0.64453,-3.95703 0,-1.3789 0.21484,-2.69922 0.64453,-3.95703 0.42968,-1.26172 1.05859,-2.35937 1.87109,-3.29687 0.82031,-0.9375 1.83594,-1.69141 3.05859,-2.25 1.21875,-0.5586 2.60938,-0.84375 4.16407,-0.84375 1.55468,0 2.94531,0.28515 4.16797,0.84375 1.21875,0.55859 2.23828,1.3125 3.05859,2.25 0.82031,0.9375 1.44141,2.03906 1.87109,3.29687 0.42969,1.25781 0.64453,2.57813 0.64453,3.95703 0,1.37891 -0.21484,2.69532 -0.64453,3.95703 -0.42968,1.25782 -1.05859,2.35547 -1.87109,3.29297 -0.81641,0.9375 -1.83984,1.69141 -3.05859,2.25 -1.22266,0.5586 -2.60547,0.84375 -4.16797,0.84375"
         id="path13-7"
         style="fill:#ffffff;fill-opacity:1" /><path
         fill-rule="nonzero"
         fill="#000000"
         fill-opacity="1"
         d="M 242.72266,20.328122 231.54297,4.648432 v 15.67969 h -2.64063 V 0.363282 h 2.64063 l 11.17969,15.67969 V 0.363282 h 2.64062 v 19.96484 z m 0,0"
         id="path14-3"
         style="fill:#ffffff;fill-opacity:1" /><path
         fill-rule="nonzero"
         fill="#f96a2c"
         fill-opacity="1"
         d="m -1e-6,4.164062 h 11.63672 v 11.64062 H -1e-6 Z m 0,0"
         id="path15-6" /><path
         fill-rule="nonzero"
         fill="#55b648"
         fill-opacity="1"
         d="m 24.718749,4.164062 h 11.64063 v 11.64062 h -11.64063 z m 0,0"
         id="path16-1" /><path
         fill-rule="nonzero"
         fill="#cfdb51"
         fill-opacity="1"
         d="m 49.441409,4.164062 h 11.64062 v 11.64062 h -11.64062 z m 0,0"
         id="path17-2" /><path
         fill-rule="nonzero"
         fill="#804f9f"
         fill-opacity="1"
         d="m 74.164059,4.164062 h 11.63672 v 11.64062 h -11.63672 z m 0,0"
         id="path18-9" /><path
         fill-rule="nonzero"
         fill="#e53d66"
         fill-opacity="1"
         d="m 98.882809,4.164062 h 11.640631 v 11.64062 H 98.882809 Z m 0,0"
         id="path19-3" /><path
         fill-rule="nonzero"
         fill="#ccdb28"
         fill-opacity="1"
         d="m 303.96094,2e-6 h 11.65625 v 9.07812 h -11.65625 z m 0,0"
         id="path20-1" /><path
         fill-rule="nonzero"
         fill="#77bd44"
         fill-opacity="1"
         d="m 315.62109,9.082032 h 11.66016 v 16.90234 h -11.66016 z m 0,0"
         id="path21-9" /><path
         fill-rule="nonzero"
         fill="#55b648"
         fill-opacity="1"
         d="M 327.28125,9.082032 315.61719,2e-6 v 9.08203 z m 0,0"
         id="path22-4" /><path
         fill-rule="nonzero"
         fill="#f19e27"
         fill-opacity="1"
         d="m 268.98828,12.949222 h 11.65625 v 9.07812 h -11.65625 z m 0,0"
         id="path23-7" /><path
         fill-rule="nonzero"
         fill="#ccdb28"
         fill-opacity="1"
         d="m 303.96094,25.984372 h 11.65625 v 9.07813 h -11.65625 z m 0,0"
         id="path24-8" /><path
         fill-rule="nonzero"
         fill="#55b648"
         fill-opacity="1"
         d="m 315.62109,25.984372 h 11.66016 v 9.07813 h -11.66016 z m 0,0"
         id="path25-4" /><path
         fill-rule="nonzero"
         fill="#f6811f"
         fill-opacity="1"
         d="m 268.98828,25.984372 h 23.31641 v 9.07813 h -23.31641 z m 0,0"
         id="path26-5" /><path
         fill-rule="nonzero"
         fill="#f6811f"
         fill-opacity="1"
         d="m 257.33203,2e-6 h 23.31641 v 9.07812 h -23.31641 z m 0,0"
         id="path27-0" /><path
         fill-rule="nonzero"
         fill="#f19e27"
         fill-opacity="1"
         d="m 292.30469,2e-6 v 9.08203 h -11.65625 v 3.86719 h 11.65625 z m 0,0"
         id="path28-3" /><path
         fill-rule="nonzero"
         fill="#f16223"
         fill-opacity="1"
         d="m 280.64453,12.949222 h 11.66016 v 9.07812 h -11.66016 z m 0,0"
         id="path29-6" /><path
         fill-rule="nonzero"
         fill="#f16223"
         fill-opacity="1"
         d="m 280.64844,2e-6 v 9.08203 h 11.65625 z m 0,0"
         id="path30-1" /><path
         fill-rule="nonzero"
         fill="#77bd44"
         fill-opacity="1"
         d="m 292.30469,2e-6 h 11.65625 v 25.98047 h -11.65625 z m 0,0"
         id="path31-0" /><path
         fill-rule="nonzero"
         fill="#55b648"
         fill-opacity="1"
         d="m 292.30469,2e-6 h 11.65625 v 9.07812 h -11.65625 z m 0,0"
         id="path32-6" /><path
         fill-rule="nonzero"
         fill="#55b648"
         fill-opacity="1"
         d="m 292.30469,25.984372 11.65625,9.07813 v -9.07813 z m 0,0"
         id="path33-3" /><path
         fill-rule="nonzero"
         fill="#f19e27"
         fill-opacity="1"
         d="m 257.33203,22.027342 h 11.65625 v 3.95703 h -11.65625 z m 0,0"
         id="path34-2" /><path
         fill-rule="nonzero"
         fill="#e8621f"
         fill-opacity="1"
         d="m 257.33203,12.949222 h 11.65625 v 9.07812 h -11.65625 z m 0,0"
         id="path35-0" /><path
         fill-rule="nonzero"
         fill="#e8621f"
         fill-opacity="1"
         d="m 268.98828,25.984372 h -11.65625 l 11.65625,9.07813 z m 0,0"
         id="path36-6" /><path
         fill-rule="nonzero"
         fill="#6b60ab"
         fill-opacity="1"
         d="m 268.98828,48.011722 h 11.65625 v 9.08203 h -11.65625 z m 0,0"
         id="path37-1" /><path
         fill-rule="nonzero"
         fill="#a77cb6"
         fill-opacity="1"
         d="m 268.98828,61.046872 h 23.31641 v 9.1836 h -23.31641 z m 0,0"
         id="path38-5" /><path
         fill-rule="nonzero"
         fill="#a77cb6"
         fill-opacity="1"
         d="m 257.33203,35.062502 h 23.31641 v 9.08203 h -23.31641 z m 0,0"
         id="path39-5" /><path
         fill-rule="nonzero"
         fill="#a77cb6"
         fill-opacity="1"
         d="m 280.64453,44.144532 h 11.66016 v 3.86719 h -11.66016 z m 0,0"
         id="path40-4" /><path
         fill-rule="nonzero"
         fill="#58469b"
         fill-opacity="1"
         d="m 280.64453,48.011722 h 11.66016 v 9.08203 h -11.66016 z m 0,0"
         id="path41-7" /><path
         fill-rule="nonzero"
         fill="#804f9f"
         fill-opacity="1"
         d="m 280.64844,35.062502 v 9.08203 h 11.65625 z m 0,0"
         id="path42-6" /><path
         fill-rule="nonzero"
         fill="#a77cb6"
         fill-opacity="1"
         d="m 257.33203,57.093752 h 11.65625 v 3.96093 h -11.65625 z m 0,0"
         id="path43-5" /><path
         fill-rule="nonzero"
         fill="#58469b"
         fill-opacity="1"
         d="m 257.33203,48.011722 h 11.65625 v 9.08203 h -11.65625 z m 0,0"
         id="path44-6" /><path
         fill-rule="nonzero"
         fill="#804f9f"
         fill-opacity="1"
         d="m 268.98828,61.054682 h -11.65625 l 11.65625,9.17579 z m 0,0"
         id="path45-9" /><path
         fill-rule="nonzero"
         fill="#de9dc5"
         fill-opacity="1"
         d="m 303.96094,48.011722 h 11.65625 v 9.08203 h -11.65625 z m 0,0"
         id="path46-3" /><path
         fill-rule="nonzero"
         fill="#de9dc5"
         fill-opacity="1"
         d="m 303.96094,61.046872 h 11.65625 v 9.1836 h -11.65625 z m 0,0"
         id="path47-7" /><path
         fill-rule="nonzero"
         fill="#eea7b9"
         fill-opacity="1"
         d="m 303.96094,35.062502 v 9.08203 h 23.32031 v -9.08203 z m 0,0"
         id="path48-4" /><path
         fill-rule="nonzero"
         fill="#e53d66"
         fill-opacity="1"
         d="m 292.30469,57.093752 h 11.65625 v 3.95312 h -11.65625 z m 0,0"
         id="path49" /><path
         fill-rule="nonzero"
         fill="#e65071"
         fill-opacity="1"
         d="m 292.30469,44.144532 h 11.65625 v 3.86719 h -11.65625 z m 0,0"
         id="path50" /><path
         fill-rule="nonzero"
         fill="#dc3c70"
         fill-opacity="1"
         d="m 292.30469,48.011722 h 11.65625 v 9.08203 h -11.65625 z m 0,0"
         id="path51" /><path
         fill-rule="nonzero"
         fill="#dc3c70"
         fill-opacity="1"
         d="m 292.30469,61.046872 h 11.65625 v 9.1836 h -11.65625 z m 0,0"
         id="path52" /><path
         fill-rule="nonzero"
         fill="#e53d66"
         fill-opacity="1"
         d="m 292.30469,44.144532 h 11.65625 v -9.08203 z m 0,0"
         id="path53" /><path
         fill-rule="nonzero"
         fill="#e53d66"
         fill-opacity="1"
         d="m 315.62109,57.093752 h 11.66016 v 3.95312 h -11.66016 z m 0,0"
         id="path54" /><path
         fill-rule="nonzero"
         fill="#dc3c70"
         fill-opacity="1"
         d="m 315.62109,48.011722 h 11.66016 v 9.08203 h -11.66016 z m 0,0"
         id="path55" /><path
         fill-rule="nonzero"
         fill="#dc3c70"
         fill-opacity="1"
         d="m 315.62109,70.230472 11.66016,-9.1836 h -11.66016 z m 0,0"
         id="path56" /></g></g><g
     inkscape:groupmode="layer"
     id="layer3"
     inkscape:label="team_logos"><image
       width="105.83334"
       height="105.83334"
       preserveAspectRatio="none"
       style="image-rendering:optimizeQuality;opacity:1"
       xlink:href="file:///var/tmp/ssl-streaming-package/services/obs_live_data/logos/a-team.png"
       id="image1-3"
       x="74.083344"
       y="132.29166"
       inkscape:label="logo_left"
       sodipodi:absref="/var/tmp/ssl-streaming-package/services/obs_live_data/logos/a-team.png" /><image
       width="105.83334"
       height="105.83334"
       preserveAspectRatio="none"
       style="image-rendering:optimizeQuality"
       xlink:href="file:///var/tmp/ssl-streaming-package/services/obs_live_data/logos/immortals.png"
       id="image1-6"
       x="328.08331"
       y="132.29166"
       sodipodi:absref="/var/tmp/ssl-streaming-package/services/obs_live_data/logos/immortals.png"
       inkscape:label="logo_right" /></g></svg>
